<?xml version="1.0" standalone="no"?>
<!DOCTYPE svg PUBLIC "-//W3C//DTD SVG 20010904//EN"
 "http://www.w3.org/TR/2001/REC-SVG-20010904/DTD/svg10.dtd">
<svg version="1.0" xmlns="http://www.w3.org/2000/svg"
 width="1800.000000pt" height="1061.000000pt" viewBox="0 0 1800.000000 1061.000000"
 preserveAspectRatio="xMidYMid meet">
<metadata>
Created by potrace 1.16, written by Peter Selinger 2001-2019
</metadata>
<g transform="translate(0.000000,1061.000000) scale(0.100000,-0.100000)"
fill="currentColor" stroke="currentColor">
<path d="M0 10174 l0 -436 28 6 c15 4 41 8 57 11 17 2 64 9 105 16 41 7 98 13
125 15 28 1 88 5 135 10 47 4 94 7 105 7 60 0 321 -16 328 -20 4 -2 26 -6 50
-8 23 -3 56 -7 72 -9 17 -3 55 -8 85 -10 99 -10 154 -16 190 -21 19 -3 53 -7
75 -10 22 -3 76 -12 119 -21 58 -12 89 -13 115 -6 41 11 100 10 119 -2 19 -11
43 24 38 54 -6 35 -29 95 -44 113 -7 8 -10 22 -6 31 3 9 2 16 -3 16 -5 0 -8
24 -8 53 1 28 -1 56 -4 61 -8 17 0 121 11 127 6 4 5 9 -3 12 -10 4 -10 6 -1 6
6 1 12 8 12 16 0 8 4 15 9 15 16 0 60 124 49 138 -8 9 -5 12 12 12 17 0 21 -5
17 -19 -3 -14 0 -18 17 -15 11 2 15 2 9 -2 -7 -3 -13 -15 -13 -26 0 -14 -5
-18 -15 -15 -8 4 -17 2 -20 -3 -4 -6 1 -10 9 -10 9 0 16 -4 16 -10 0 -5 5 -10
11 -10 5 0 8 4 5 9 -4 5 -2 20 3 33 8 20 10 21 16 6 4 -10 16 -18 26 -18 16 0
18 -3 9 -19 -5 -11 -10 -40 -10 -65 0 -27 -5 -46 -11 -46 -6 0 -9 -9 -6 -20 3
-10 -1 -24 -9 -31 -17 -14 -19 -33 -2 -23 6 4 8 3 5 -3 -3 -5 -2 -26 2 -46 5
-20 7 -38 5 -40 -2 -2 -6 -66 -8 -143 -4 -168 9 -231 61 -281 18 -18 40 -33
48 -33 9 0 18 -7 21 -15 4 -8 12 -15 20 -15 8 0 14 -4 14 -10 0 -5 27 -37 60
-70 33 -33 60 -58 60 -54 0 4 10 -5 23 -19 12 -15 28 -27 35 -27 15 0 15 -13
0 -28 -8 -8 -8 -12 -1 -12 21 0 35 30 32 72 -3 47 7 88 21 88 5 0 7 12 5 28
-2 15 -4 27 -6 27 -4 0 -6 101 -2 108 3 5 6 35 8 69 1 33 6 63 11 67 5 3 9 11
9 16 0 17 49 85 62 85 18 0 59 42 67 68 4 12 12 22 17 22 5 0 9 11 9 24 0 35
10 57 23 49 6 -4 8 0 4 11 -4 10 3 32 18 56 14 22 25 44 25 49 0 5 6 16 13 23
7 7 23 29 36 48 27 39 110 120 123 120 5 0 26 11 48 25 22 14 48 25 59 25 11
0 22 4 26 9 3 5 19 12 35 16 41 9 38 31 -10 75 -36 34 -104 61 -215 86 -16 4
-46 22 -65 41 l-35 33 -408 0 c-381 0 -411 -1 -435 -18 -15 -10 -34 -22 -42
-25 -8 -4 -46 -32 -85 -62 -66 -52 -139 -85 -189 -85 -12 0 -34 10 -49 23 -25
19 -29 30 -30 79 -1 34 4 62 12 72 12 15 -41 16 -623 16 l-636 0 0 -436z"/>
<path d="M3350 10588 c-19 -20 -19 -23 -4 -46 28 -43 21 -85 -31 -188 -26 -53
-54 -98 -62 -101 -7 -3 -11 -8 -8 -12 2 -4 -3 -19 -13 -32 -9 -13 -17 -30 -19
-38 -1 -8 -8 -18 -15 -22 -10 -7 -10 -11 2 -19 10 -6 11 -10 3 -10 -7 0 -13
-10 -13 -21 0 -12 -7 -27 -16 -34 -15 -10 -15 -13 0 -27 9 -9 13 -24 10 -32
-3 -9 -2 -16 4 -16 5 0 12 7 16 15 3 8 11 15 18 14 10 0 10 -2 1 -6 -17 -6 9
-33 32 -33 9 0 14 -4 10 -9 -3 -5 3 -12 12 -14 15 -4 15 -5 -2 -6 -27 -1 -56
-36 -48 -57 3 -8 15 -20 27 -24 17 -7 18 -9 4 -9 -20 -1 -25 -27 -6 -33 9 -3
9 -6 0 -12 -7 -4 -12 -2 -12 3 0 19 -20 12 -21 -6 0 -11 -3 -13 -6 -5 -2 6 -9
12 -15 12 -6 0 -6 -6 2 -15 6 -8 17 -13 22 -12 6 1 13 -4 15 -10 3 -7 -2 -13
-11 -13 -8 0 -17 -4 -20 -9 -3 -4 5 -7 18 -6 13 2 23 -3 23 -10 0 -7 -8 -10
-18 -8 -9 3 -20 0 -23 -6 -5 -7 -1 -8 9 -5 11 5 14 2 9 -10 -4 -10 -13 -15
-21 -12 -8 4 -20 3 -26 -1 -7 -4 -3 -9 9 -14 17 -7 17 -8 2 -8 -21 -1 -23 -21
-5 -40 10 -11 9 -13 -5 -8 -9 3 -18 2 -20 -4 -2 -5 -15 -6 -35 0 -25 7 -31 6
-27 -4 4 -9 -1 -12 -13 -10 -10 2 -18 4 -18 5 0 1 -9 3 -20 4 -11 2 -35 6 -54
10 -24 6 -36 4 -42 -5 -7 -10 -11 -11 -16 -3 -10 14 -93 17 -93 3 0 -5 -7 -9
-15 -9 -9 0 -18 -7 -21 -15 -4 -8 -12 -15 -19 -15 -6 0 -31 -13 -53 -30 -23
-16 -48 -30 -56 -30 -8 0 -17 -6 -19 -12 -4 -10 -8 -9 -16 2 -8 12 -13 12 -23
2 -6 -6 -19 -12 -28 -12 -9 0 -25 -9 -35 -20 -10 -11 -23 -17 -29 -13 -6 3 -8
3 -4 -1 4 -5 -4 -20 -18 -35 -13 -14 -39 -56 -57 -93 -17 -38 -37 -68 -43 -68
-6 0 -17 -11 -24 -25 -7 -14 -17 -25 -22 -25 -4 0 -8 -9 -8 -20 0 -11 -4 -20
-10 -20 -5 0 -10 -6 -10 -13 0 -12 -26 -33 -43 -35 -22 -2 -34 -39 -30 -91 8
-120 24 -191 44 -201 26 -14 24 -28 -11 -74 -29 -38 -39 -89 -21 -101 5 -3 15
-22 21 -43 7 -20 26 -64 42 -97 75 -149 108 -312 80 -394 -25 -74 -56 -131
-71 -131 -8 0 -11 -3 -8 -6 3 -4 2 -15 -4 -26 -6 -11 -13 -17 -16 -14 -3 3
-13 -4 -22 -15 -15 -19 -27 -21 -111 -20 -66 0 -103 -4 -120 -14 -14 -8 -37
-19 -52 -26 -16 -6 -26 -15 -23 -19 3 -4 -1 -20 -9 -35 -15 -29 -15 -36 3 -79
6 -16 9 -31 7 -33 -3 -3 6 -17 20 -31 13 -15 24 -32 24 -39 0 -7 5 -13 12 -13
6 0 9 -3 5 -6 -3 -4 5 -21 18 -39 14 -17 25 -37 25 -43 0 -6 6 -9 14 -6 9 3
17 -3 21 -17 7 -21 9 -20 26 15 10 21 20 54 22 75 4 48 16 69 28 50 7 -11 9
-11 9 -1 0 10 20 11 88 6 48 -3 103 -7 122 -8 l35 -1 11 63 c6 34 13 64 15 66
4 4 4 -224 0 -266 -4 -53 -115 -114 -217 -119 -38 -3 -41 -5 -42 -32 0 -16 4
-41 9 -56 6 -14 10 -27 9 -29 0 -1 29 -26 66 -56 61 -49 167 -96 216 -96 9 0
19 -7 22 -16 3 -8 9 -13 14 -11 10 7 50 -15 53 -28 2 -15 9 -35 25 -78 27 -73
33 -120 22 -165 -9 -36 -8 -46 5 -59 14 -15 18 -15 41 1 14 9 26 22 26 29 1
36 107 70 148 48 38 -20 73 -77 81 -132 13 -79 -9 -149 -64 -204 -29 -29 -57
-80 -106 -195 -24 -57 -28 -116 -14 -182 4 -20 4 -53 1 -73 -6 -29 -14 -39
-39 -48 -18 -6 -36 -10 -40 -9 -4 1 -24 5 -45 8 -20 3 -38 10 -40 15 -5 12
-59 11 -67 -1 -4 -6 -14 -8 -23 -6 -10 3 -22 2 -28 -2 -12 -8 -53 -83 -50 -93
0 -4 -6 -15 -15 -25 -28 -33 -32 -44 -12 -37 16 6 16 5 4 -10 -8 -10 -11 -20
-8 -24 4 -3 2 -12 -4 -20 -7 -8 -7 -13 -2 -13 11 0 11 -20 0 -60 -4 -14 -9
-39 -10 -55 -2 -17 -7 -36 -11 -43 -5 -8 -2 -10 8 -6 9 3 16 11 16 18 0 6 15
11 33 11 29 0 32 3 32 29 1 16 6 31 13 34 7 2 12 12 12 21 0 10 16 26 36 37
20 10 54 36 75 57 37 35 42 37 105 37 81 0 115 -16 142 -67 21 -38 14 -79 -17
-112 -25 -26 -36 -31 -78 -31 -65 0 -76 -9 -68 -53 4 -20 13 -41 21 -48 8 -6
14 -19 14 -28 0 -20 25 -59 72 -109 124 -134 152 -298 78 -446 -24 -48 -39
-66 -54 -67 -33 -2 -51 2 -54 12 -2 5 -9 9 -15 9 -25 0 -86 36 -82 48 3 7 0
10 -5 7 -10 -6 -72 24 -78 38 -2 4 -17 7 -32 7 -19 0 -33 7 -40 20 -6 11 -17
20 -24 20 -12 0 -16 12 -17 54 0 10 -7 29 -16 42 -8 13 -12 24 -8 24 4 0 2 7
-5 15 -6 8 -9 18 -6 23 9 15 -14 82 -28 82 -8 0 -15 19 -19 52 -6 47 -27 82
-36 57 -2 -6 -10 -1 -17 10 -14 19 -16 19 -35 3 -50 -41 -79 -71 -79 -81 0 -6
-9 -11 -20 -11 -11 0 -20 -6 -20 -12 0 -9 -4 -8 -10 2 -8 12 -10 12 -10 -5 0
-17 -2 -17 -10 -5 -9 13 -10 13 -10 0 -1 -12 -3 -12 -13 2 -8 9 -24 18 -38 20
-13 2 -30 7 -38 12 -11 7 -11 10 0 17 10 6 8 9 -8 9 -16 0 -23 6 -23 19 0 10
-11 26 -25 35 -14 9 -25 23 -25 30 0 8 -11 17 -24 20 -15 4 -26 16 -30 32 -4
15 -26 44 -49 66 -23 21 -42 44 -42 51 0 7 -9 12 -20 13 -11 0 -28 4 -39 9
-12 5 -21 4 -26 -5 -5 -8 -9 -9 -14 -1 -4 6 -12 11 -17 11 -6 0 -7 -4 -4 -10
6 -10 5 -11 -33 -15 -27 -3 -65 -21 -107 -51 -16 -12 -39 -24 -50 -26 -11 -1
-22 -5 -25 -8 -15 -15 -53 -30 -74 -30 -13 0 -26 -4 -28 -10 -1 -5 -30 -15
-63 -21 -33 -6 -64 -14 -70 -19 -5 -4 -85 -7 -177 -6 -93 0 -168 -2 -168 -5 0
-3 -19 -11 -41 -18 -67 -20 -96 -49 -149 -149 -34 -63 -39 -80 -34 -118 3 -29
1 -44 -6 -44 -6 0 -8 -5 -5 -10 4 -6 14 -9 22 -8 9 2 18 -4 20 -12 4 -13 3
-13 -6 0 -8 11 -11 11 -11 2 0 -15 39 -32 57 -25 7 3 13 -1 13 -8 0 -7 3 -9 7
-6 3 4 12 2 19 -4 8 -7 14 -7 19 1 3 5 11 10 16 10 6 0 8 -4 5 -8 -3 -5 1 -9
9 -9 8 0 15 5 15 10 0 5 6 4 14 -2 10 -9 20 -9 34 -2 18 9 33 8 212 -25 14 -3
39 -7 57 -8 17 -2 37 -7 44 -11 8 -5 10 -4 5 3 -5 8 -2 10 8 6 9 -3 16 -10 16
-14 0 -11 141 -7 159 4 7 5 16 5 20 0 9 -13 41 -17 41 -4 0 5 12 10 26 10 14
0 23 4 19 10 -3 6 -1 10 4 10 6 0 11 -7 11 -15 0 -8 5 -15 10 -15 6 0 10 7 10
16 0 8 5 12 10 9 6 -3 10 -1 10 4 0 14 47 14 55 1 4 -6 14 -5 27 3 13 7 22 8
24 2 4 -9 31 -9 154 -4 51 3 75 -13 86 -55 3 -14 12 -30 20 -34 11 -6 11 -15
-3 -52 -9 -25 -15 -55 -15 -67 1 -13 -2 -23 -7 -23 -8 0 -32 -45 -37 -69 -1
-8 -9 -18 -16 -22 -11 -7 -11 -9 0 -9 7 0 10 -5 6 -11 -8 -14 -8 -124 1 -138
10 -17 19 -193 20 -373 0 -87 4 -158 8 -158 5 0 5 -4 2 -10 -3 -5 -2 -26 4
-45 5 -19 6 -35 2 -35 -4 0 -4 -21 -1 -48 7 -56 -6 -130 -27 -154 -9 -10 -17
-32 -19 -49 -2 -18 -13 -39 -25 -47 -12 -8 -31 -26 -42 -39 -25 -28 -41 -29
-92 -3 -22 11 -36 20 -31 20 4 0 -2 12 -14 27 -12 16 -17 29 -11 31 7 2 5 9
-4 18 -8 8 -12 20 -9 27 2 8 -7 26 -21 41 -14 15 -25 36 -25 47 0 10 -3 18 -7
17 -5 -1 -19 3 -33 9 -33 14 -109 10 -140 -7 -29 -16 -30 -16 -41 2 -7 10 -9
10 -9 1 0 -7 -10 -13 -21 -13 -16 0 -20 -5 -16 -20 5 -18 4 -18 -19 -3 -15 9
-24 11 -24 4 0 -6 -9 -11 -20 -11 -10 0 -29 -10 -40 -22 -17 -19 -22 -20 -30
-8 -7 11 -14 12 -34 2 -15 -7 -26 -8 -26 -2 0 5 -10 9 -23 8 -12 -1 -31 1 -42
5 -11 4 -26 3 -34 -2 -8 -6 -24 -6 -38 0 -15 5 -23 5 -23 -2 0 -6 -7 -6 -20 1
-11 6 -20 7 -20 3 0 -4 -5 -1 -10 7 -6 9 -10 10 -10 3 0 -15 -69 -5 -91 13 -8
8 -29 14 -45 15 -16 0 -24 3 -17 5 17 7 4 34 -17 34 -9 0 -25 9 -35 20 -10 11
-26 20 -35 20 -9 0 -23 11 -30 25 -14 26 -36 33 -42 13 -3 -7 -11 -4 -24 9
-10 11 -30 24 -43 28 -14 4 -34 16 -45 26 -11 11 -25 19 -32 19 -6 0 -17 7
-24 15 -7 8 -18 15 -26 15 -7 0 -27 13 -45 30 -18 16 -37 26 -42 23 -6 -4 -8
0 -4 10 6 16 -8 23 -35 18 -5 0 -8 5 -8 12 0 17 -53 77 -68 77 -11 0 -17 27
-13 58 1 6 -3 12 -9 12 -12 0 -50 37 -50 49 0 5 6 12 13 15 8 3 7 8 -5 16 -14
8 -18 24 -18 65 0 53 -13 74 -23 38 -3 -10 -3 9 -1 42 2 34 1 50 -4 37 -4 -13
-11 -23 -17 -22 -13 1 -10 63 4 68 6 2 11 15 11 29 0 22 -2 23 -15 9 -8 -8
-15 -20 -15 -27 0 -7 -3 -10 -6 -6 -4 3 -2 19 4 36 8 23 7 31 -4 35 -7 3 -18
-3 -23 -12 -9 -14 -10 -13 -11 11 0 15 -4 27 -10 27 -7 0 -10 -298 -10 -873
l0 -874 82 -17 c46 -10 121 -26 168 -36 47 -10 121 -28 165 -40 93 -26 195
-47 268 -55 29 -3 103 -12 165 -20 62 -8 136 -15 165 -15 34 0 70 -9 105 -25
47 -22 76 -42 171 -120 60 -50 258 -245 293 -290 46 -58 311 -339 381 -405 46
-42 132 -139 271 -304 33 -39 65 -75 71 -81 7 -5 51 -59 99 -118 48 -60 103
-126 123 -148 20 -21 44 -51 53 -67 9 -15 37 -49 61 -77 24 -27 60 -72 79
-100 19 -27 39 -54 46 -60 13 -11 254 -386 278 -433 9 -17 36 -52 61 -79 46
-48 118 -153 250 -362 l70 -111 728 0 c401 0 726 3 724 7 -3 5 -30 68 -61 140
-47 112 -166 390 -196 458 -10 21 -32 83 -76 215 -14 41 -29 84 -34 95 -5 11
-18 43 -29 70 -10 28 -33 79 -49 115 -17 36 -42 101 -57 145 -14 43 -63 156
-109 249 -102 206 -147 314 -181 432 -14 49 -32 99 -40 111 -9 12 -29 67 -46
120 -66 209 -105 286 -218 424 -43 54 -53 67 -111 144 -16 22 -33 45 -38 50
-4 6 -26 35 -49 65 -36 50 -93 107 -165 166 -38 32 -118 77 -118 67 0 -4 -5 0
-11 10 -5 9 -19 17 -29 17 -11 0 -20 5 -20 10 0 6 -12 9 -27 8 -18 -2 -27 1
-25 10 4 20 -22 9 -29 -13 l-6 -20 -8 20 c-18 44 -26 46 -56 12 -24 -26 -31
-29 -39 -17 -11 19 -22 8 -22 -23 0 -19 -5 -23 -23 -19 -12 2 -26 -1 -30 -7
-3 -6 -3 -11 2 -10 25 4 35 -3 15 -12 -14 -5 -21 -14 -17 -21 4 -7 0 -5 -8 5
-15 18 -32 24 -22 7 3 -6 -1 -10 -9 -10 -9 0 -16 -5 -16 -11 0 -7 -10 -9 -27
-4 -27 6 -27 6 -8 -10 14 -11 16 -15 5 -14 -32 3 -61 -1 -56 -9 2 -4 -3 -9
-12 -10 -92 -11 -127 -19 -125 -27 3 -15 -50 -6 -64 11 -10 13 -15 12 -38 -8
-17 -15 -36 -22 -56 -20 -21 3 -29 -1 -29 -12 0 -8 -5 -18 -12 -22 -7 -5 -8
-3 -3 6 6 9 2 10 -15 5 -15 -5 -25 -2 -31 6 -7 11 -9 10 -9 -3 0 -10 -7 -18
-15 -18 -8 0 -15 -4 -15 -10 0 -5 -4 -10 -10 -10 -5 0 -10 8 -10 18 -1 16 -1
16 -11 -1 -6 -9 -14 -15 -20 -12 -5 4 -9 -3 -9 -14 0 -12 -5 -21 -11 -21 -5 0
-7 5 -3 12 5 8 -2 9 -24 5 -22 -4 -32 -2 -36 9 -3 8 -10 12 -16 9 -6 -4 -1
-14 12 -25 27 -22 25 -23 -20 -11 -26 8 -32 7 -32 -5 0 -10 -5 -12 -12 -7 -7
4 -20 8 -28 8 -9 0 -14 7 -12 19 3 15 1 16 -11 5 -11 -10 -12 -16 -3 -21 6 -4
-1 -8 -16 -8 -29 0 -62 26 -55 44 7 17 -30 17 -44 0 -10 -12 -14 -12 -21 -2
-6 9 -8 3 -4 -15 5 -20 2 -29 -10 -34 -9 -3 -19 -2 -23 3 -3 5 -18 9 -34 9
-23 -1 -26 2 -21 20 12 40 36 83 55 101 10 9 19 25 19 34 0 9 12 30 28 47 50
55 57 68 57 110 1 22 7 49 15 58 8 9 16 27 17 38 2 12 7 23 12 25 5 2 7 11 4
20 -6 25 114 179 198 254 38 35 129 102 202 149 73 48 142 97 155 110 13 13
54 56 92 96 99 105 159 116 285 54 33 -16 84 -35 114 -41 29 -5 65 -18 80 -29
14 -10 34 -21 45 -24 32 -12 75 -49 200 -168 67 -64 184 -170 262 -237 184
-158 260 -243 526 -593 269 -353 502 -676 569 -790 17 -30 47 -72 66 -94 19
-22 113 -159 209 -305 292 -447 299 -455 361 -490 70 -40 164 -116 181 -146 7
-13 21 -28 32 -34 25 -13 29 5 13 62 -3 10 2 18 14 20 35 8 193 -59 193 -82 0
-4 16 -18 35 -31 19 -13 40 -37 47 -54 7 -16 25 -41 40 -53 16 -13 28 -30 28
-37 0 -7 11 -27 25 -43 36 -42 92 -122 111 -157 9 -16 30 -46 45 -65 16 -19
29 -38 29 -42 0 -5 24 -43 54 -86 53 -77 136 -210 136 -218 0 -6 110 -165 128
-187 15 -17 47 -17 531 -14 469 3 528 5 651 25 178 28 178 28 172 -3 l-4 -25
1320 0 c1301 0 1321 1 1327 20 4 12 19 22 42 26 32 6 40 3 59 -20 38 -43 81
-36 127 23 35 44 77 116 77 132 0 10 -95 2 -145 -11 -66 -18 -105 -16 -105 4
0 27 -107 96 -148 96 -10 0 -33 9 -53 19 -24 13 -49 18 -80 15 -52 -4 -119
-24 -119 -35 0 -7 -52 -20 -130 -33 -36 -6 -64 17 -55 45 11 33 92 116 156
159 30 21 67 54 82 73 40 53 72 62 180 49 51 -6 100 -14 110 -17 13 -6 17 -2
17 18 0 21 -10 32 -40 42 -3 1 -12 4 -20 7 -8 3 -44 11 -79 17 l-64 12 -36
-34 c-51 -47 -163 -117 -213 -131 -44 -14 -53 -23 -63 -69 -8 -37 -48 -54 -81
-32 -22 14 -23 13 -34 -19 -9 -28 -20 -37 -66 -55 -31 -11 -70 -21 -88 -21
-25 0 -35 -6 -44 -25 -6 -14 -18 -25 -27 -25 -8 0 -15 -3 -15 -8 0 -4 -27 -17
-59 -30 -55 -21 -64 -22 -123 -11 -35 7 -71 19 -80 27 -25 21 -23 59 5 73 12
6 35 27 50 45 19 23 37 34 55 34 65 0 115 34 265 180 82 80 153 152 158 161
15 29 -43 9 -76 -27 -22 -23 -44 -35 -74 -40 -31 -5 -45 -13 -56 -33 -19 -37
-75 -91 -105 -103 -14 -5 -58 -7 -101 -3 -65 6 -80 11 -107 36 -35 33 -40 50
-17 69 8 7 20 31 26 54 14 50 87 121 174 168 76 41 206 126 270 177 28 23 75
55 105 73 69 41 187 154 150 143 -75 -21 -138 -35 -160 -35 -17 -1 -32 -11
-45 -32 -48 -76 -149 -122 -210 -97 -17 7 -50 19 -75 28 -33 12 -47 23 -54 43
-9 25 -5 32 30 65 21 21 46 52 55 69 10 19 51 55 104 90 49 33 131 91 184 130
53 39 117 83 144 98 38 23 47 33 47 55 0 16 -13 133 -30 262 -31 247 -50 454
-50 550 l0 58 63 -19 c34 -10 150 -46 257 -80 107 -34 265 -84 350 -110 85
-27 267 -85 404 -130 l249 -82 -7 -441 c-3 -243 -9 -512 -12 -597 -4 -85 -1
-222 5 -305 6 -82 12 -282 13 -442 l3 -293 526 0 526 0 -5 30 c-2 16 -8 27
-13 24 -11 -6 -29 38 -29 70 0 13 9 31 20 41 11 10 20 26 20 35 0 10 6 23 14
29 20 17 52 80 61 119 3 18 12 32 18 32 7 0 23 9 37 20 14 11 35 20 48 20 12
0 31 6 42 13 17 10 22 9 29 -1 7 -11 9 -10 15 3 3 9 10 13 16 10 5 -3 10 -1
10 6 0 6 11 -5 25 -25 14 -20 25 -43 25 -51 0 -9 9 -32 20 -52 11 -21 20 -53
20 -71 0 -18 4 -42 10 -52 7 -13 6 -19 -4 -23 -12 -5 -12 -13 -1 -49 12 -43 7
-79 -14 -93 -6 -3 -11 -13 -11 -21 0 -12 114 -14 833 -14 458 0 837 4 842 9 6
4 30 13 54 19 38 9 50 8 82 -9 37 -19 74 -19 1500 -19 l1461 0 68 58 c88 74
99 95 106 187 3 42 13 102 23 133 14 42 16 61 7 74 -7 12 -7 27 2 52 12 33 11
39 -15 83 -26 44 -28 56 -28 153 0 123 11 159 64 215 46 47 52 64 54 153 2 52
7 74 25 99 l22 31 -20 47 c-11 26 -20 59 -21 73 0 15 -6 43 -13 62 -9 24 -10
47 -3 78 6 29 5 47 -2 56 -6 7 -14 40 -17 73 -6 52 -3 69 19 117 14 30 37 67
51 81 l26 26 0 209 c0 116 -4 210 -8 210 -12 0 -52 -48 -52 -63 0 -8 -4 -7
-10 3 -5 8 -10 10 -10 4 0 -16 -85 -38 -107 -29 -10 5 -24 7 -30 6 -7 -1 -13
3 -13 9 0 6 -4 9 -8 6 -17 -10 -73 60 -79 100 -3 21 -10 44 -14 50 -13 16 -13
114 -1 146 11 28 5 38 -30 51 -20 7 -26 71 -7 82 6 4 8 13 5 21 -3 8 -2 14 2
14 4 0 18 28 31 63 24 63 56 107 78 107 6 0 13 5 15 12 3 9 12 6 30 -7 13 -11
23 -26 20 -33 -2 -7 6 -12 22 -12 15 0 26 6 26 13 0 8 13 25 29 39 16 15 30
30 32 35 2 4 21 16 42 25 l37 18 0 430 0 430 -54 0 c-61 0 -104 -20 -131 -60
-10 -15 -39 -42 -65 -59 -41 -28 -48 -38 -53 -75 -7 -47 1 -89 14 -80 8 5 11
-2 8 -22 -1 -11 44 -44 52 -38 5 3 9 0 9 -6 0 -6 11 -15 25 -20 23 -9 31 -27
25 -55 -1 -5 -4 -28 -7 -50 -2 -22 -13 -48 -24 -58 -11 -10 -17 -22 -14 -28 4
-5 -3 -9 -13 -9 -13 0 -22 -9 -26 -25 -4 -14 -11 -23 -16 -20 -5 3 -11 1 -14
-4 -4 -5 -28 -9 -55 -8 -48 2 -86 21 -75 39 3 5 1 15 -6 23 -6 7 -9 27 -7 44
3 16 1 31 -4 33 -5 2 -5 18 1 39 9 33 8 39 -23 71 -27 29 -34 47 -44 114 -17
109 -29 147 -58 178 -59 64 -127 222 -140 326 -9 80 -35 209 -50 255 -20 62
-28 172 -17 256 10 75 36 140 123 302 19 36 28 64 24 75 -4 9 -9 31 -11 47 -6
56 -13 78 -30 96 -10 11 -13 19 -9 19 5 0 4 5 -3 12 -7 7 -12 20 -12 30 0 10
-4 18 -10 18 -5 0 -10 7 -10 16 0 9 -16 57 -36 107 -30 76 -57 165 -69 227 -2
8 -4 15 -5 15 -1 0 -4 14 -5 30 -2 17 -5 53 -8 82 -3 28 -10 60 -16 71 -6 11
-8 22 -5 25 4 3 -3 18 -14 34 -10 15 -22 38 -26 50 -4 12 -27 43 -52 68 -24
25 -44 52 -44 60 0 8 -4 15 -8 15 -4 0 -13 12 -20 28 -17 37 -51 97 -90 156
-18 28 -32 58 -32 67 0 10 -6 19 -12 21 -7 3 -14 16 -15 29 -5 50 -16 89 -29
100 -8 6 -14 20 -14 31 0 11 -16 54 -35 95 -19 41 -35 77 -35 79 0 2 -16 36
-35 76 -41 84 -54 155 -30 164 8 3 13 9 11 13 -6 9 73 86 80 78 4 -3 24 9 46
27 62 53 85 53 139 -1 43 -44 79 -63 79 -42 0 5 -4 9 -9 9 -7 0 -13 14 -21 48
-1 4 -7 14 -14 22 -8 8 -33 51 -56 95 -24 44 -62 101 -84 126 -23 25 -56 64
-75 85 -44 51 -178 254 -192 290 -16 43 -12 265 6 293 6 11 -9 47 -19 44 -12
-3 -46 10 -46 18 0 13 -83 21 -110 11 -16 -6 -31 -5 -44 2 -29 17 -55 44 -48
50 3 3 -2 6 -11 6 -10 0 -17 8 -17 20 0 11 -5 20 -11 20 -6 0 -9 6 -6 13 3 7
-1 21 -9 32 -8 10 -14 34 -14 52 0 18 -5 33 -11 33 -7 0 -8 7 -4 18 4 9 9 114
11 232 2 118 7 235 12 260 4 25 8 90 7 145 -1 57 3 113 10 130 7 17 15 48 19
70 13 67 45 133 69 139 12 3 23 6 24 6 12 5 75 23 105 31 49 12 108 48 108 65
0 8 4 14 9 14 5 0 13 9 16 21 17 51 96 142 136 154 10 4 17 11 14 16 -3 5 1 6
9 3 9 -3 16 -1 16 4 0 6 10 14 23 18 12 4 25 11 28 17 4 5 31 11 60 13 105 8
133 14 141 29 5 8 17 15 27 15 25 0 46 83 37 144 -8 50 -70 129 -146 186 -62
46 -89 78 -111 126 -31 68 -48 77 -131 72 -56 -4 -95 -15 -167 -47 -52 -22
-100 -41 -108 -41 -7 0 -13 -4 -13 -9 0 -18 -105 -45 -180 -46 -107 -2 -211
-44 -251 -103 -20 -29 -24 -50 -27 -126 -3 -76 -1 -92 14 -103 19 -14 13 -57
-13 -85 -9 -10 -12 -18 -7 -18 5 0 -11 -18 -35 -40 -25 -22 -53 -40 -63 -40
-10 0 -18 -4 -18 -10 0 -5 -6 -7 -12 -5 -7 3 -20 1 -27 -4 -13 -8 -11 -13 7
-28 14 -12 22 -32 25 -61 2 -23 13 -55 25 -71 29 -39 40 -97 29 -146 -11 -50
-14 -701 -4 -970 4 -110 12 -244 18 -298 13 -110 25 -130 85 -142 19 -3 34
-10 34 -15 0 -6 6 -10 14 -10 36 0 51 -153 21 -217 -23 -49 -89 -110 -120
-112 -36 -2 -33 -2 -247 5 -148 5 -201 10 -209 20 -6 8 -17 14 -24 14 -8 0
-27 11 -43 25 -17 14 -34 25 -39 25 -9 0 -10 4 -12 75 -2 43 -1 48 19 113 12
39 49 82 106 122 41 29 54 63 59 156 9 172 23 543 30 864 3 118 7 277 9 352 2
80 8 143 14 151 8 10 8 20 -2 38 -7 14 -15 49 -18 78 -5 49 -31 91 -56 91 -8
0 -69 -50 -94 -77 -62 -66 -113 -113 -123 -113 -4 0 -18 -10 -31 -22 -36 -35
-64 -58 -69 -58 -3 0 -24 -18 -47 -41 -36 -34 -48 -39 -74 -35 -35 5 -54 22
-160 141 -82 92 -163 198 -259 340 -37 55 -87 123 -110 150 -212 249 -308 366
-398 485 -31 41 -61 80 -66 87 -6 6 -38 49 -73 95 -71 94 -79 104 -132 164
l-38 44 -884 0 -883 0 -78 -42 c-43 -23 -100 -54 -128 -70 -27 -15 -59 -32
-70 -37 -11 -5 -74 -40 -140 -78 -66 -38 -142 -80 -170 -95 -27 -14 -86 -45
-130 -69 -128 -68 -215 -109 -295 -140 -78 -30 -110 -36 -110 -19 0 6 -10 10
-23 10 -21 0 -23 4 -26 77 -2 57 -7 83 -22 101 -10 14 -19 32 -19 41 0 10 -9
27 -21 39 -11 12 -18 26 -15 30 2 4 -13 37 -34 72 -51 84 -59 102 -62 145 l-2
35 -536 0 -537 0 -23 -25 c-13 -14 -28 -25 -34 -25 -18 0 -116 -90 -141 -130
-20 -31 -22 -43 -15 -71 5 -19 15 -66 21 -106 8 -55 15 -74 29 -78 28 -9 109
-90 121 -122 12 -30 12 -163 0 -175 -15 -16 -117 54 -342 235 -146 117 -352
277 -418 325 -35 26 -81 64 -102 85 l-37 39 -49 -51 c-27 -28 -56 -51 -63 -51
-8 0 7 22 33 48 26 26 47 51 47 54 0 4 -21 16 -46 28 -44 19 -66 20 -345 20
-164 0 -309 -4 -322 -9 -13 -5 -32 -26 -41 -45 -9 -20 -20 -35 -24 -32 -20 12
-70 -66 -76 -117 -1 -15 -11 -34 -22 -42 -15 -11 -16 -15 -4 -15 13 -1 13 -2
-1 -13 -9 -7 -19 -25 -23 -40 -4 -17 -17 -32 -32 -37 -17 -7 -24 -16 -21 -25
4 -9 1 -12 -9 -8 -13 5 -18 -6 -15 -34 1 -6 -3 -14 -8 -18 -6 -3 -9 -11 -7
-18 1 -7 1 -9 -1 -4 -8 13 -23 8 -23 -8 0 -8 -5 -15 -11 -15 -5 0 -7 5 -3 12
4 7 3 8 -4 4 -7 -4 -12 -14 -12 -23 0 -8 -16 -33 -35 -56 -20 -23 -33 -47 -31
-54 3 -7 1 -15 -4 -18 -6 -4 -10 -15 -10 -26 0 -10 -7 -19 -15 -19 -8 0 -15
-9 -15 -19 0 -11 -7 -26 -15 -35 -8 -8 -15 -19 -15 -24 0 -6 -5 -12 -12 -14
-23 -8 113 -216 150 -229 14 -5 2 -21 -53 -75 -39 -38 -97 -91 -130 -119 -33
-27 -93 -80 -134 -117 -77 -72 -123 -94 -64 -31 l35 36 -23 18 c-33 24 -102
44 -107 30 -2 -6 -10 -11 -18 -11 -9 0 -13 -4 -9 -10 12 -19 -70 1 -93 23 -13
12 -40 48 -59 80 -20 31 -40 57 -44 57 -5 0 -9 6 -9 14 0 8 -3 16 -7 18 -12 5
-63 104 -57 111 9 8 -19 47 -34 47 -10 0 -12 -8 -7 -31 8 -33 44 -121 54 -129
7 -6 29 -66 71 -193 33 -100 99 -227 118 -227 6 0 12 -4 12 -8 0 -8 -119 -129
-166 -169 -12 -10 -61 -55 -110 -99 -157 -144 -215 -193 -262 -224 -50 -33
-62 -36 -62 -17 0 8 -18 49 -39 93 -46 93 -71 173 -71 227 0 21 -13 71 -29
110 -28 72 -38 101 -106 319 -47 152 -45 150 -337 453 -55 57 -58 64 -63 120
-3 33 -8 77 -11 98 -7 56 12 113 62 183 39 57 42 64 26 74 -13 8 -13 10 -2 9
31 -3 38 1 33 21 -3 11 -9 20 -14 20 -5 0 -9 7 -9 15 0 8 -5 15 -12 15 -6 0
-3 7 8 15 14 12 15 14 2 9 -11 -4 -21 3 -32 23 -8 15 -15 24 -16 20 0 -11 -50
44 -50 55 0 5 -12 9 -27 8 -45 -3 -55 -1 -47 12 5 8 0 9 -14 6 -12 -4 -20 -3
-17 2 4 6 -30 6 -102 1 -16 -1 -27 -39 -15 -54 36 -47 -2 -125 -78 -159 -14
-6 -28 -12 -32 -12 -3 -1 -10 -4 -14 -8 -16 -17 -68 -6 -137 29 -70 35 -75 37
-177 36 -119 0 -130 3 -292 81 -79 38 -132 58 -160 59 -41 2 -43 1 -41 -26 1
-15 -2 -25 -7 -22 -5 3 -15 -2 -23 -10 -9 -8 -20 -15 -26 -15 -5 0 -11 -9 -13
-21 -2 -11 -16 -28 -33 -37 -16 -9 -32 -20 -35 -23 -13 -14 -44 -19 -52 -7 -6
10 -8 10 -8 1 0 -7 -12 -13 -26 -13 -14 0 -23 -4 -19 -10 3 -5 2 -10 -3 -10
-6 0 -17 -18 -26 -41 -9 -22 -20 -37 -26 -34 -5 3 -21 3 -35 -1 -19 -5 -23
-10 -15 -19 8 -9 4 -11 -16 -7 -19 3 -25 1 -20 -7 14 -21 -13 -41 -40 -30 -17
6 -23 6 -19 -1 3 -6 -4 -10 -17 -10 -13 0 -29 -5 -36 -12 -8 -8 -15 -8 -24 -1
-12 10 -47 17 -75 14 -7 -1 -10 -8 -6 -17 5 -13 2 -15 -14 -10 -25 8 -55 -2
-47 -16 3 -5 -3 -12 -15 -15 -12 -3 -21 -9 -21 -14 0 -14 -62 -49 -73 -42 -6
3 -7 2 -4 -4 3 -5 -7 -17 -24 -27 -22 -13 -29 -14 -29 -4 -1 9 -5 7 -14 -4 -7
-10 -18 -18 -24 -18 -5 0 -12 -7 -16 -15 -3 -8 -12 -15 -21 -15 -8 0 -15 -7
-15 -15 0 -8 -5 -15 -11 -15 -5 0 -7 -4 -4 -10 3 -5 -1 -10 -9 -10 -8 0 -18
-9 -21 -20 -7 -22 -95 -120 -95 -106 0 5 -6 3 -14 -3 -18 -15 -37 -7 -61 28
-17 26 -20 28 -31 13 -10 -14 -17 -15 -43 -5 -25 9 -31 9 -31 -2 0 -7 -7 -16
-16 -19 -23 -9 -27 -8 -20 9 3 9 -4 21 -19 31 -14 9 -25 23 -25 32 0 13 3 13
19 -2 19 -17 19 -17 14 3 -5 22 -37 29 -46 11 -3 -6 -4 -5 -3 2 1 7 26 17 55
22 35 6 50 13 47 21 -3 8 2 11 15 8 23 -6 26 12 3 21 -14 5 -14 7 0 22 9 8 20
13 24 10 5 -3 15 6 22 20 10 18 16 21 22 12 6 -10 8 -10 8 0 0 6 9 12 20 12
11 0 20 -5 20 -12 0 -9 3 -9 11 -1 8 8 6 19 -7 39 l-18 29 25 -22 c14 -13 28
-23 32 -23 12 0 8 28 -4 32 -21 7 21 38 52 38 22 0 29 5 29 19 0 32 24 30 37
-3 l11 -31 1 28 c1 23 5 27 30 27 16 0 37 7 45 16 18 17 22 54 6 54 -6 0 -5 8
2 21 10 15 20 19 41 15 26 -5 28 -4 22 17 -6 18 -5 20 6 10 16 -16 39 -17 39
-2 0 6 -7 9 -15 5 -9 -3 -15 0 -15 9 0 8 6 12 13 9 8 -3 20 2 27 10 7 9 17 13
23 9 5 -3 7 -1 3 5 -3 6 -2 14 4 17 7 4 7 11 2 18 -11 15 -12 47 0 47 4 0 9
-4 9 -10 1 -5 3 -14 4 -20 1 -5 3 -18 4 -27 2 -17 2 -17 12 0 5 9 7 21 4 26
-3 6 3 15 12 21 16 10 15 11 -5 6 -32 -6 -19 6 20 19 17 5 36 19 42 30 6 11
12 22 14 25 2 3 10 -4 18 -14 8 -11 14 -14 14 -8 0 7 5 12 11 12 5 0 7 -4 4
-10 -3 -5 -1 -10 4 -10 6 0 11 6 11 14 0 16 30 26 82 26 42 0 71 24 63 50 -9
30 32 37 60 10 21 -20 27 -21 59 -10 20 6 36 18 36 26 0 16 16 19 25 4 13 -21
24 -9 14 14 -7 15 -17 22 -25 19 -10 -4 -12 0 -8 11 6 15 -42 16 -545 16
l-550 0 -21 -22z m7189 -51 c36 -3 50 -74 48 -233 -2 -96 1 -139 13 -169 23
-60 63 -125 78 -125 6 0 12 -7 12 -15 0 -21 27 -19 39 3 9 15 11 14 11 -8 1
-14 4 -19 7 -12 2 6 9 10 14 6 5 -3 9 0 9 7 0 6 8 9 20 6 11 -3 27 1 35 10 13
13 15 12 15 -5 0 -23 -50 -65 -125 -107 -27 -15 -63 -36 -78 -47 -28 -20 -135
-58 -163 -58 -7 0 -11 6 -8 14 3 8 1 24 -6 35 -7 14 -7 21 0 21 5 0 10 7 10
15 0 8 -4 15 -10 15 -12 0 -10 133 3 141 9 6 -9 48 -28 62 -6 4 -4 11 5 17 12
8 10 10 -11 10 -14 0 -36 9 -48 19 -13 11 -30 17 -43 13 -13 -3 -24 1 -30 12
-5 9 -13 14 -18 11 -5 -3 -14 5 -21 17 -7 12 -18 29 -26 36 -11 12 -20 106
-13 137 1 6 2 25 1 44 -1 44 24 91 49 91 11 0 20 4 20 9 0 13 96 34 123 27 12
-3 29 -1 37 5 8 5 24 7 35 3 11 -3 31 -6 44 -7z m-340 -793 c9 -10 21 -19 26
-20 53 -6 74 -43 36 -64 -11 -5 -26 -16 -33 -22 -27 -25 -46 -36 -143 -79 -27
-13 -53 -25 -56 -26 -6 -3 -58 38 -158 124 -16 15 -4 10 33 -12 32 -19 63 -32
67 -29 5 3 9 25 9 50 0 25 6 51 13 57 47 45 175 58 206 21z m761 -119 c60 -31
62 -126 4 -196 l-33 -40 1 -105 c1 -57 5 -104 9 -104 18 0 52 -74 50 -109 -3
-50 -3 -53 3 -82 4 -18 0 -31 -14 -44 -21 -19 -28 -79 -10 -90 6 -3 10 -22 10
-41 0 -26 -4 -34 -17 -34 -20 0 -261 203 -270 227 -10 24 14 63 39 63 13 0 28
4 34 8 18 11 82 136 85 163 5 59 -2 99 -21 117 -51 47 -70 85 -70 137 0 74 31
118 88 126 23 3 45 8 48 12 11 11 33 8 64 -8z m2115 -684 c55 -6 159 -13 230
-16 133 -7 146 -9 275 -46 41 -11 87 -23 102 -26 14 -3 40 -17 58 -31 31 -27
31 -27 15 -59 -9 -18 -23 -33 -31 -33 -8 0 -14 -6 -14 -14 0 -16 -22 -27 -65
-32 -50 -6 -75 -24 -75 -55 0 -15 -4 -29 -10 -31 -15 -5 12 -52 37 -63 12 -5
27 -20 34 -32 9 -17 21 -23 44 -23 17 0 40 -8 51 -17 28 -25 51 -39 116 -69
53 -24 104 -77 92 -95 -2 -4 -42 6 -88 22 -81 27 -88 28 -178 18 -70 -8 -107
-8 -151 2 -62 13 -124 1 -148 -28 -6 -7 -19 -13 -28 -13 -9 0 -29 -7 -45 -15
-36 -19 -56 -19 -56 0 0 9 -6 28 -14 43 -15 29 -75 53 -166 67 -25 4 -79 16
-120 27 -83 23 -309 38 -376 26 -23 -4 -85 -28 -138 -53 -75 -36 -104 -56
-133 -93 -21 -26 -42 -50 -46 -53 -10 -8 14 -25 33 -23 40 2 99 18 136 35 22
10 55 19 73 19 17 0 46 7 63 16 23 12 49 15 107 11 67 -5 78 -8 99 -33 33 -38
17 -44 -103 -43 -55 0 -114 -4 -132 -9 -17 -6 -34 -8 -36 -6 -3 3 -29 -8 -59
-24 -29 -16 -68 -33 -86 -37 -23 -5 -34 -14 -38 -31 -8 -32 9 -52 60 -65 61
-16 84 -34 79 -61 -4 -19 5 -29 49 -55 30 -18 57 -33 62 -33 4 0 31 -11 60
-24 75 -35 141 -45 222 -34 79 11 104 24 142 77 15 21 50 50 78 65 51 27 144
109 144 127 0 5 2 9 4 9 2 0 12 3 22 7 11 4 15 3 11 -4 -4 -6 4 -14 18 -17 33
-8 50 -37 70 -116 10 -37 31 -85 51 -112 19 -27 30 -48 24 -48 -5 0 -1 -15 9
-32 17 -30 22 -33 61 -30 23 1 48 -2 56 -8 20 -17 114 -40 164 -40 25 0 73 7
108 15 95 23 149 22 173 -2 11 -11 27 -48 35 -84 9 -35 18 -73 21 -84 9 -38
15 -164 9 -189 -6 -26 -7 -26 -44 -10 -20 9 -68 17 -107 18 -78 3 -102 13
-154 64 -54 52 -111 96 -162 126 -74 42 -88 32 -44 -32 29 -42 34 -102 9 -102
-8 0 -35 9 -59 20 -42 19 -62 20 -311 17 -313 -3 -310 -4 -307 82 1 49 0 51
-27 51 -26 0 -84 -19 -121 -39 -9 -5 -40 -12 -70 -16 -75 -8 -111 -15 -134
-24 -113 -47 -176 -64 -238 -66 -48 -1 -62 -6 -87 -30 -26 -25 -34 -27 -57
-19 -16 5 -35 26 -49 52 -20 38 -23 55 -20 145 1 56 5 113 8 127 4 14 9 47 13
73 3 27 13 67 21 90 24 65 25 74 27 200 0 64 5 117 9 117 5 0 8 6 6 13 -2 6 8
27 20 45 13 17 20 32 16 32 -4 0 8 13 26 29 24 21 33 37 33 60 0 17 4 31 8 31
4 0 10 14 14 30 4 17 10 30 15 30 4 0 10 8 14 18 3 9 15 33 27 52 33 55 24
207 -12 185 -5 -4 -9 13 -9 39 0 76 55 107 210 120 41 4 100 11 130 17 72 13
254 26 305 22 22 -1 85 -7 140 -12z m-4313 -83 c36 -34 59 -102 31 -91 -9 4
-11 0 -7 -11 3 -9 11 -13 17 -9 6 3 7 1 3 -5 -4 -7 -20 -12 -36 -12 -22 0 -28
-4 -24 -15 4 -9 0 -15 -10 -15 -9 0 -16 -8 -16 -18 0 -20 -32 -55 -46 -50 -5
1 -31 -8 -57 -21 -61 -30 -85 -16 -41 23 26 23 27 25 9 26 -16 0 -17 2 -5 10
9 6 17 5 21 -2 9 -14 57 -14 72 1 8 8 8 11 -1 11 -9 0 -9 4 0 19 16 26 -24 91
-57 91 -51 0 -28 55 39 92 40 21 65 16 108 -24z m232 -48 c7 -7 6 -10 -4 -10
-8 -1 3 -11 25 -23 41 -22 95 -29 95 -13 0 6 9 0 20 -12 22 -24 27 -52 8 -52
-7 0 -8 -3 -2 -9 14 -13 101 -34 113 -27 5 4 12 2 16 -4 4 -6 11 -8 16 -5 5 4
12 -1 15 -9 4 -11 14 -14 29 -10 15 4 24 0 29 -11 3 -9 11 -13 17 -10 6 4 13
-2 16 -14 3 -12 10 -21 15 -21 6 0 8 10 5 23 -6 22 -6 22 9 2 8 -11 20 -21 27
-21 7 -1 17 -2 23 -3 14 -1 60 -41 48 -41 -5 -1 6 -7 25 -15 18 -8 37 -12 42
-9 5 3 6 -1 3 -9 -5 -15 36 -39 89 -52 15 -4 27 -10 27 -14 0 -4 23 -30 50
-58 33 -34 48 -57 44 -67 -3 -9 -1 -16 5 -16 6 0 11 5 11 10 0 6 5 10 11 10 5
0 8 -4 4 -10 -3 -5 7 -16 22 -25 23 -13 24 -15 6 -12 -19 4 -21 2 -16 -31 4
-25 3 -33 -5 -28 -8 5 -10 2 -6 -8 3 -9 10 -16 15 -16 4 0 6 -7 3 -15 -5 -12
-12 -10 -38 10 -18 14 -40 25 -49 25 -10 0 -17 7 -17 16 0 10 -6 13 -19 9 -18
-6 -71 12 -71 24 0 4 -12 8 -26 9 -15 1 -33 7 -40 13 -7 6 -17 8 -23 5 -5 -3
-11 -1 -13 6 -2 6 -11 12 -19 14 -7 1 -23 6 -33 10 -15 5 -17 4 -11 -6 6 -10
0 -11 -31 -5 -21 5 -61 9 -89 10 -27 1 -71 5 -96 9 -32 6 -49 4 -54 -4 -5 -8
-10 -8 -20 0 -22 18 -164 18 -175 0 -8 -13 -12 -12 -27 4 -17 17 -17 18 5 11
21 -6 23 -4 20 21 -2 15 2 29 10 31 7 3 10 -1 6 -10 -8 -21 17 -33 30 -14 8
10 17 12 27 7 18 -10 59 -2 59 12 0 5 -6 6 -12 2 -7 -4 -6 1 4 11 16 17 44 12
33 -6 -8 -13 27 2 44 19 11 11 15 11 22 0 7 -10 12 -11 29 0 24 15 33 16 25 2
-3 -6 1 -7 9 -4 9 3 13 11 9 18 -4 6 1 5 10 -2 9 -8 21 -11 28 -7 6 4 14 3 18
-3 4 -6 17 -1 34 13 l29 22 -44 35 c-60 48 -102 71 -183 98 -38 12 -84 29
-102 36 -17 8 -39 14 -49 14 -9 0 -25 7 -34 15 -9 8 -40 21 -70 28 -35 9 -56
20 -58 31 -2 9 -7 16 -12 16 -12 0 -41 61 -34 72 4 5 15 8 25 5 11 -3 19 -1
19 4 0 5 -6 9 -14 9 -8 0 -18 5 -22 11 -9 15 124 5 140 -11z m-540 -85 c3 -8
12 -12 21 -9 22 9 20 -32 -2 -46 -16 -10 -16 -11 2 -4 11 4 31 7 45 8 14 1 29
6 33 11 5 6 6 2 3 -8 -3 -10 -6 -26 -6 -34 0 -13 -3 -13 -15 -3 -12 10 -18 10
-30 0 -12 -10 -12 -15 2 -37 17 -25 17 -26 -22 -59 -22 -19 -44 -34 -48 -34
-5 0 -20 -14 -34 -30 -14 -17 -28 -28 -31 -25 -3 2 -20 -7 -39 -21 -18 -14
-38 -22 -45 -18 -7 5 -8 3 -3 -6 6 -10 4 -12 -8 -7 -9 3 -26 -2 -39 -12 -13
-10 -33 -21 -45 -25 -13 -4 -23 -12 -23 -18 0 -5 -7 -8 -15 -4 -8 3 -15 1 -15
-4 0 -6 -7 -10 -15 -10 -8 0 -19 -9 -25 -20 -6 -12 -21 -20 -36 -20 -14 0 -23
-4 -20 -9 3 -5 -1 -11 -9 -15 -16 -6 -19 12 -9 52 4 14 14 22 28 22 19 1 19 2
4 11 -28 16 -21 25 16 21 26 -3 37 1 50 19 9 13 16 19 16 14 0 -5 13 5 29 23
17 17 33 27 36 22 12 -20 27 -10 21 14 -5 21 -2 25 21 28 20 2 29 9 31 26 2
12 10 22 18 22 20 0 29 -4 27 -12 -2 -5 21 -4 37 2 3 1 8 2 13 1 4 0 7 3 7 8
0 5 7 17 16 25 19 20 34 20 34 2 0 -20 38 -8 51 16 14 26 -3 45 -46 50 -34 4
-46 -4 -25 -17 21 -13 9 -23 -26 -22 -20 1 -32 3 -25 5 6 2 11 15 11 29 0 22
4 25 25 21 14 -3 33 0 42 7 15 11 15 13 -5 19 -12 4 -22 14 -22 22 0 8 5 12
10 9 6 -3 10 3 10 14 0 24 15 28 24 6z m-5780 -227 c12 -16 18 -19 22 -10 8
17 24 15 24 -3 0 -8 -7 -15 -15 -15 -10 0 -15 -10 -15 -33 0 -17 -5 -48 -10
-67 -10 -33 -8 -37 21 -62 l31 -26 -28 -36 c-16 -20 -32 -36 -36 -36 -11 0
-10 -32 2 -50 8 -12 13 -11 33 9 24 21 27 22 55 7 17 -9 32 -21 35 -28 4 -10
7 -11 18 0 22 21 56 14 82 -18 34 -40 42 -68 26 -96 -9 -19 -10 -32 -1 -63 10
-31 9 -64 -2 -72 0 -1 -43 -3 -93 -5 -77 -3 -93 -1 -93 11 0 19 -9 19 -34 0
-28 -21 -42 -19 -78 15 -32 31 -44 38 -33 20 3 -6 3 -19 0 -30 -5 -15 -15 -20
-45 -20 -36 0 -40 -3 -49 -32 -9 -32 -9 -32 -10 -5 -1 15 -10 36 -21 47 -27
27 -25 69 4 112 l24 36 -30 26 c-19 17 -28 33 -26 47 4 27 42 55 86 63 26 4
32 2 32 -12 0 -10 5 -23 12 -30 9 -9 18 -6 40 15 33 32 35 46 7 71 -11 11 -21
33 -21 48 0 27 16 154 28 217 7 34 35 36 58 5z m12101 -84 c78 -90 110 -120
143 -133 19 -8 39 -19 45 -25 7 -6 36 -27 64 -46 29 -19 53 -41 53 -47 0 -7 7
-13 15 -13 8 0 15 -4 15 -9 0 -5 13 -23 29 -40 27 -29 29 -37 26 -89 -2 -31
-5 -64 -8 -72 -2 -8 -7 -33 -11 -55 -7 -38 -18 -70 -37 -107 -5 -10 -9 -27 -9
-37 0 -11 -7 -24 -15 -29 -9 -4 -17 -19 -20 -31 -2 -13 -11 -31 -20 -41 -8 -9
-15 -20 -15 -24 0 -13 -27 -35 -35 -28 -5 4 -5 1 -1 -6 5 -8 1 -21 -10 -33
-13 -14 -15 -22 -7 -30 6 -6 9 -18 6 -26 -5 -12 -7 -12 -14 -1 -7 10 -9 9 -9
-3 0 -22 27 -32 34 -13 3 8 10 14 17 14 6 0 9 -7 6 -15 -4 -8 -2 -17 3 -20 6
-4 10 -1 10 5 0 6 5 8 10 5 6 -4 8 -10 5 -15 -8 -12 57 -78 88 -89 20 -8 27
-6 32 7 5 13 8 14 15 3 4 -8 6 -20 3 -27 -2 -6 0 -15 6 -18 6 -4 6 -18 1 -36
-6 -21 -5 -30 3 -31 7 0 3 -4 -8 -9 l-20 -9 20 -1 c18 -1 19 -1 3 -11 -10 -5
-30 -31 -45 -57 -15 -26 -30 -49 -33 -52 -4 -3 -9 -13 -13 -22 -4 -12 -12 -15
-23 -11 -12 4 -15 3 -10 -5 4 -7 2 -12 -4 -12 -6 0 -9 -4 -6 -8 10 -16 -38
-52 -69 -52 -9 0 -14 -4 -11 -9 8 -12 -28 -51 -48 -51 -10 0 -14 -4 -11 -10 3
-5 -1 -10 -10 -10 -9 0 -15 -5 -13 -12 4 -12 -26 -45 -64 -72 -9 -7 -18 -18
-20 -26 -4 -17 -35 -50 -47 -50 -5 0 -11 -5 -13 -12 -2 -6 -11 -9 -19 -6 -20
8 -37 109 -44 268 -3 69 -9 136 -12 149 -3 14 -2 22 3 18 6 -3 8 9 6 29 -3 21
0 34 7 34 12 0 4 51 -10 60 -4 3 -4 12 1 20 11 17 3 56 -18 88 -8 12 -10 22
-6 22 5 0 0 7 -10 15 -11 8 -17 15 -13 15 4 0 3 10 -4 21 -11 22 -40 138 -54
214 -3 22 -17 51 -30 65 -24 25 -89 172 -127 285 -19 57 -32 219 -17 209 4 -2
10 7 13 21 7 26 35 46 141 104 33 18 62 36 65 41 7 11 61 28 90 29 18 0 37
-13 65 -45z m-8812 -226 c108 -57 126 -71 193 -145 66 -74 111 -139 102 -148
-5 -6 -97 22 -203 60 -55 20 -138 47 -185 60 -47 13 -99 31 -115 39 -17 9 -39
16 -50 16 -12 0 -26 5 -31 10 -6 6 -36 11 -68 11 -45 1 -63 7 -82 24 -13 12
-24 27 -24 34 0 16 48 12 100 -9 44 -18 156 -40 195 -40 11 0 45 -4 75 -9 82
-14 150 -13 150 2 -1 16 -68 64 -144 102 -60 30 -83 55 -50 55 9 0 71 -28 137
-62z m2962 -88 c39 -1 135 2 215 6 286 13 570 -26 726 -101 128 -62 208 -179
319 -465 21 -52 46 -110 57 -128 11 -17 23 -53 27 -80 4 -26 12 -46 18 -45 6
1 25 -58 43 -135 18 -75 35 -144 38 -152 5 -13 3 -13 -11 -1 -21 17 -21 14 2
-35 15 -33 18 -59 16 -169 -2 -71 -4 -253 -6 -402 -2 -220 -5 -273 -16 -273
-7 0 -13 -7 -13 -15 0 -8 4 -15 9 -15 9 0 7 -17 -11 -115 -14 -77 -16 -93 -17
-131 -1 -18 -12 -43 -26 -60 -14 -16 -25 -33 -25 -37 0 -5 -6 -5 -12 0 -22 14
-33 9 -48 -22 -21 -44 -35 -56 -49 -42 -8 8 -14 8 -23 -1 -14 -14 -32 -16 -24
-3 4 5 -4 7 -15 4 -12 -4 -27 -19 -33 -34 -7 -21 -15 -27 -31 -24 -23 6 -48
-11 -58 -39 -5 -13 -3 -17 7 -13 18 7 10 -27 -10 -44 -8 -6 -14 -19 -14 -29 0
-9 -9 -27 -20 -40 -11 -13 -20 -32 -20 -42 0 -11 -4 -16 -10 -13 -8 5 -81 -44
-135 -93 -36 -31 -85 -64 -85 -55 0 4 -5 0 -11 -9 -5 -10 -18 -18 -28 -18 -10
0 -30 -9 -44 -20 -14 -11 -38 -20 -54 -20 -15 0 -46 -9 -67 -21 -22 -12 -55
-23 -75 -25 -19 -3 -40 -9 -46 -14 -19 -16 -146 -18 -200 -4 -36 10 -51 10
-56 2 -5 -8 -25 -5 -71 11 -34 12 -67 22 -73 22 -5 0 -35 -2 -67 -3 -31 -2
-55 -1 -53 2 2 3 -20 5 -48 4 -29 -1 -60 3 -70 8 -9 5 -41 10 -70 13 -70 5
-71 5 -160 49 -43 21 -88 39 -100 40 -12 0 -24 3 -27 6 -10 10 -70 28 -70 21
0 -12 -34 -9 -43 3 -5 7 -11 5 -17 -6 -6 -9 -17 -15 -25 -12 -8 4 -15 1 -15
-7 0 -7 -3 -9 -7 -6 -3 4 -25 -4 -49 -18 -23 -14 -51 -25 -62 -25 -14 0 -21
-9 -26 -31 -4 -20 -11 -29 -19 -26 -15 6 -41 -29 -32 -43 3 -4 0 -10 -5 -12
-6 -2 -15 -30 -21 -63 -5 -33 -11 -67 -12 -77 -2 -9 -9 -23 -16 -32 -7 -8 -10
-20 -6 -26 3 -5 -1 -13 -9 -16 -9 -3 -14 -10 -11 -14 3 -4 -9 -10 -25 -14 -27
-5 -36 1 -78 44 -84 87 -91 100 -134 260 -17 62 -28 133 -32 210 -2 41 -9 95
-15 120 -16 69 -38 157 -59 240 -25 93 -40 217 -48 391 -7 138 3 250 33 379
12 49 15 116 14 267 -3 358 21 492 107 605 27 35 58 80 71 100 12 21 33 46 46
57 37 28 102 114 155 204 102 171 97 165 176 202 90 42 165 65 319 100 125 28
296 51 362 48 21 0 70 -2 108 -3z m-3191 -245 c55 -4 131 -16 170 -26 39 -11
128 -35 198 -53 231 -61 305 -112 401 -274 36 -61 65 -134 113 -284 36 -112
78 -244 94 -293 17 -50 30 -99 30 -108 0 -21 -23 -22 -99 -3 -127 31 -120 33
-208 -52 -94 -91 -129 -152 -119 -209 4 -21 11 -67 17 -102 9 -63 32 -106 50
-95 5 3 9 -12 9 -33 0 -48 14 -63 58 -63 50 0 112 -21 123 -41 12 -24 -4 -33
-58 -30 -23 0 -43 -3 -43 -8 0 -15 48 -48 95 -67 55 -20 157 -16 182 9 15 15
15 18 0 41 -9 13 -26 27 -37 31 -36 11 -16 30 31 30 64 -1 73 -7 121 -82 54
-82 66 -117 115 -303 31 -120 37 -161 36 -240 0 -103 -25 -210 -48 -210 -8 0
-11 7 -8 20 3 11 0 20 -6 20 -6 0 -29 17 -50 38 -49 46 -96 82 -108 82 -9 0
-19 10 -97 92 -37 40 -46 45 -56 33 -21 -25 -47 -18 -59 15 -10 31 -11 31 -68
25 -32 -3 -65 -8 -75 -11 -9 -3 -36 0 -60 6 -33 9 -72 8 -154 -1 -60 -7 -137
-13 -171 -13 -60 0 -65 2 -102 38 -45 44 -54 76 -36 120 7 17 15 45 18 63 4
26 2 31 -11 26 -26 -9 -72 -45 -139 -109 -89 -85 -111 -102 -144 -109 -17 -4
-37 -19 -46 -33 -32 -51 -53 -65 -104 -71 -9 -1 -61 -51 -53 -51 14 0 -31 -42
-68 -62 -21 -12 -38 -25 -38 -29 0 -4 -11 -10 -24 -13 -13 -3 -38 -18 -55 -33
-28 -25 -31 -33 -31 -84 0 -31 7 -79 16 -107 13 -39 24 -54 54 -71 37 -20 38
-23 38 -74 0 -94 1 -97 20 -97 24 1 52 24 52 44 0 30 41 39 90 21 44 -16 125
-35 165 -38 11 -1 21 5 23 15 2 13 -2 16 -21 12 -48 -8 -68 56 -34 107 28 42
52 47 81 20 l23 -22 40 41 c45 44 76 50 134 26 19 -8 90 -17 159 -21 72 -4
136 -13 152 -21 15 -8 39 -14 53 -14 30 0 72 -25 98 -57 10 -13 24 -23 32 -23
19 0 25 -23 25 -95 0 -65 -14 -91 -43 -79 -21 8 -35 -23 -28 -61 5 -26 13 -32
64 -48 44 -14 58 -24 63 -42 19 -76 -26 -81 -242 -25 -88 22 -170 45 -184 50
-14 5 -36 12 -50 14 -14 3 -43 10 -65 15 -48 13 -95 14 -95 3 0 -24 170 -179
206 -188 14 -4 37 -19 52 -33 50 -50 74 -60 181 -70 57 -6 105 -11 106 -11 2
0 18 26 35 58 41 78 93 109 133 79 16 -11 16 -16 4 -52 -8 -22 -11 -49 -7 -60
9 -24 -5 -85 -29 -133 -10 -21 -31 -75 -46 -122 -30 -96 -49 -124 -74 -111 -9
5 -51 12 -94 16 -75 7 -80 8 -124 52 -43 41 -49 44 -82 38 -20 -4 -52 -9 -71
-11 -19 -2 -60 -10 -90 -19 -95 -26 -130 -20 -276 46 -22 11 -47 19 -55 19
-32 0 -94 29 -111 51 -37 49 -52 60 -75 54 -13 -3 -23 -1 -23 5 0 5 -8 10 -17
10 -10 0 -57 27 -105 60 -47 33 -93 60 -102 60 -9 0 -13 6 -10 14 4 11 0 13
-15 9 -15 -4 -21 -1 -21 11 0 9 -8 16 -20 16 -11 0 -20 5 -20 10 0 6 -7 10
-15 10 -8 0 -34 11 -59 25 -47 26 -81 32 -91 15 -3 -5 -20 -7 -36 -3 -21 4
-34 1 -40 -8 -7 -11 -9 -10 -9 4 0 10 -4 15 -10 12 -5 -3 -16 -3 -22 2 -7 4
-29 8 -48 9 -19 0 -51 9 -70 19 -19 11 -39 18 -44 17 -4 -2 -28 5 -52 14 -25
9 -54 14 -69 10 -15 -4 -25 -2 -25 4 0 6 -5 8 -10 5 -6 -4 -34 -3 -63 1 -40 5
-47 9 -32 15 18 7 18 8 -4 8 -15 1 -44 22 -79 56 -31 30 -52 55 -48 55 4 0 -8
14 -28 32 -20 17 -36 36 -36 41 0 7 -45 73 -60 87 -9 9 -34 65 -32 73 1 4 -5
7 -13 7 -8 0 -15 6 -15 14 0 20 -93 95 -132 107 -61 17 -66 14 -73 -45 -4 -33
-14 -61 -25 -71 -17 -16 -19 -15 -29 4 -6 11 -11 27 -11 35 0 8 -5 37 -10 64
-10 42 -15 50 -46 61 -19 7 -50 29 -69 48 -48 50 -49 103 -3 145 30 27 31 29
21 70 -6 24 -18 64 -27 91 -14 44 -14 47 2 47 9 0 41 -23 70 -52 46 -45 58
-51 95 -52 42 -1 42 -1 39 32 -2 21 1 32 9 32 9 0 7 4 -3 13 -11 8 -18 36 -22
86 -3 41 -8 76 -11 79 -2 3 -13 -6 -23 -18 -21 -26 -42 -20 -42 12 0 30 27 81
51 96 18 11 23 11 34 -5 7 -10 11 -22 8 -28 -4 -5 5 0 19 13 18 16 37 22 72
22 l47 0 30 -65 c24 -53 33 -65 52 -64 12 1 29 -1 39 -5 11 -5 18 -1 23 13 4
12 15 21 26 21 16 0 18 4 11 17 -7 11 -5 21 4 31 9 8 12 22 8 34 -4 12 -2 18
4 14 5 -3 4 11 -3 31 -9 25 -10 46 -4 67 5 17 12 56 14 86 10 103 16 140 26
146 6 3 8 12 5 20 -3 7 -1 16 5 19 5 4 7 10 4 15 -3 5 1 28 10 52 8 24 15 59
15 78 0 19 5 51 11 70 6 19 14 88 18 154 6 105 10 121 29 136 12 10 22 21 22
24 0 11 61 91 69 91 20 0 41 37 41 73 0 31 4 41 20 45 11 3 22 1 25 -4 7 -11
32 -1 39 16 3 8 -3 24 -13 37 -16 20 -17 31 -10 78 5 30 8 81 7 112 -2 56 -3
58 -35 69 -29 9 -38 23 -34 51 0 4 -5 5 -12 3 -18 -7 -31 5 -50 47 -24 51 -22
63 17 86 31 18 36 19 56 5 25 -18 26 -18 42 31 11 33 22 44 71 69 109 55 320
126 527 178 42 10 299 48 355 51 52 4 127 2 249 -7z m-2990 -216 c31 -25 56
-69 56 -100 0 -13 -12 -36 -27 -51 -24 -25 -33 -28 -94 -28 -51 0 -72 5 -91
20 -14 10 -28 16 -32 13 -3 -3 -6 11 -6 32 0 41 29 96 63 120 32 22 99 19 131
-6z m10141 -212 c80 -83 100 -99 153 -126 21 -11 44 -26 50 -34 22 -27 -33
-29 -301 -12 -145 9 -164 17 -144 63 11 26 119 160 141 174 21 14 31 8 101
-65z m-2094 -117 c-2 -30 -16 -107 -32 -170 -31 -120 -53 -224 -64 -300 -9
-63 -44 -178 -55 -185 -6 -3 -10 -17 -10 -31 0 -35 -17 -29 -24 9 -3 17 -8
159 -11 313 l-6 282 33 38 c50 57 119 104 148 102 24 -3 25 -6 21 -58z m2066
-202 c7 -6 19 -5 32 1 28 15 63 14 89 -5 12 -8 27 -12 34 -8 18 12 86 5 118
-11 20 -10 43 -13 74 -9 32 5 52 2 68 -8 13 -8 48 -18 80 -22 63 -8 72 -19 62
-72 -8 -44 -28 -59 -83 -61 -51 -3 -163 -19 -143 -22 7 0 10 -6 7 -11 -9 -14
-300 -4 -401 14 -96 16 -150 39 -181 75 -48 56 -24 70 67 37 40 -14 100 -22
100 -12 0 1 -5 17 -11 34 -8 25 -7 36 8 59 28 44 44 48 80 21z m-284 -180 c12
-6 54 -37 92 -68 39 -31 116 -83 173 -115 83 -46 121 -61 195 -76 51 -10 112
-18 137 -19 25 0 55 -6 66 -14 11 -8 40 -17 65 -21 97 -13 98 -13 92 -48 -2
-18 -18 -45 -34 -61 -30 -28 -32 -28 -107 -22 -42 4 -93 8 -112 9 -19 1 -39 7
-43 12 -6 6 -10 6 -14 -2 -3 -9 -10 -10 -21 -4 -9 5 -56 9 -104 10 -62 1 -100
7 -133 21 -26 11 -51 20 -56 20 -28 0 -110 50 -151 92 -25 26 -49 48 -52 48
-12 0 -56 52 -51 60 3 5 -3 15 -15 22 -23 15 -27 48 -6 48 11 0 13 10 9 40 -4
30 -1 45 12 60 21 23 28 24 58 8z m-1554 -199 c6 -18 11 -41 11 -53 0 -12 7
-34 15 -50 9 -16 13 -31 11 -34 -3 -2 1 -17 9 -32 12 -23 12 -30 -1 -49 -8
-11 -21 -21 -27 -21 -7 0 -18 -9 -25 -20 -9 -15 -22 -19 -58 -18 -25 2 -50 8
-56 15 -15 18 -3 56 29 94 24 28 28 41 26 87 -3 93 42 148 66 81z m-4210 -64
c17 -49 26 -190 16 -242 l-7 -38 -21 26 c-53 65 -162 83 -270 45 l-69 -23 6
29 c7 35 36 77 54 78 6 0 12 7 12 15 0 8 4 15 9 15 4 0 20 17 34 38 14 22 39
44 59 51 18 7 49 21 68 31 19 10 49 18 65 17 25 -2 32 -8 44 -42z m7689 -22
c28 -21 74 -51 103 -68 29 -16 104 -79 167 -138 64 -60 140 -130 171 -155 30
-26 85 -76 121 -112 61 -61 147 -136 194 -170 11 -8 33 -29 49 -47 16 -18 81
-75 145 -127 125 -101 216 -181 352 -312 47 -45 112 -106 144 -135 33 -30 93
-87 135 -126 42 -40 83 -73 92 -73 9 0 39 -25 67 -55 28 -30 56 -55 61 -55 6
0 39 -28 73 -63 35 -34 101 -96 147 -137 46 -41 99 -88 116 -105 18 -16 57
-53 87 -82 30 -29 67 -55 81 -58 25 -7 46 -31 61 -69 6 -18 5 -19 -11 -5 -10
9 -49 42 -88 74 -91 75 -167 139 -230 195 -28 25 -82 72 -120 105 -38 33 -95
83 -126 110 -31 28 -83 73 -115 100 -32 28 -101 88 -154 135 -81 74 -159 141
-414 360 -23 19 -104 91 -181 159 -77 68 -153 136 -170 150 -16 14 -104 91
-195 171 -91 79 -167 146 -170 150 -3 3 -21 18 -40 34 -19 16 -72 63 -118 104
-46 42 -100 90 -120 107 -101 85 -188 175 -169 175 2 0 26 -17 55 -37z m-3736
-415 c7 -7 40 -26 73 -43 50 -25 67 -41 102 -95 66 -101 95 -118 132 -79 20
22 29 22 103 4 21 -6 27 -3 33 15 9 30 55 24 72 -10 10 -20 10 -29 -2 -47 -21
-32 -6 -135 25 -168 19 -20 22 -31 16 -64 l-6 -39 36 1 c38 1 74 -28 74 -61 0
-9 11 -28 25 -42 19 -20 26 -41 31 -88 8 -70 8 -71 129 -111 33 -11 161 -54
285 -95 124 -42 268 -90 320 -107 52 -18 98 -37 102 -43 4 -6 8 -8 8 -4 0 9
101 -20 114 -33 6 -5 20 -9 33 -9 12 0 39 -7 60 -16 88 -39 169 -64 177 -56 3
3 6 1 6 -5 0 -5 6 -10 13 -11 6 0 167 -53 357 -116 190 -64 428 -143 530 -177
102 -33 192 -63 200 -67 8 -3 17 -6 20 -7 17 -4 156 -50 210 -69 36 -13 106
-36 155 -51 50 -15 124 -40 165 -56 41 -15 109 -37 150 -49 103 -30 104 -30
97 -36 -5 -5 -29 0 -172 38 -22 5 -76 22 -120 36 -44 14 -88 25 -97 24 -10 0
-18 4 -18 10 0 6 -3 8 -7 5 -3 -4 -12 -2 -19 4 -8 6 -29 15 -49 19 -28 6 -37
4 -46 -9 -8 -13 -9 -12 -4 6 5 18 1 23 -22 28 -15 4 -41 11 -57 16 -15 5 -32
7 -36 4 -5 -3 -10 0 -12 6 -2 7 -23 12 -45 12 -33 0 -40 3 -35 15 3 10 1 13
-7 8 -6 -4 -18 -3 -25 3 -8 7 -28 13 -45 14 -17 1 -31 5 -31 9 0 10 -69 30
-85 24 -9 -3 -15 1 -15 10 0 11 -6 15 -20 11 -11 -3 -26 0 -33 7 -6 6 -23 12
-37 11 -14 0 -31 6 -39 13 -7 7 -20 11 -28 8 -9 -4 -11 -1 -7 5 4 7 1 10 -7 7
-8 -3 -20 2 -28 10 -8 8 -27 12 -46 10 -18 -2 -37 2 -44 10 -7 7 -19 11 -27 8
-9 -3 -14 1 -15 12 0 11 -2 12 -6 4 -4 -10 -8 -10 -19 -1 -11 9 -14 8 -14 -2
0 -12 -2 -12 -9 0 -5 8 -16 11 -25 8 -11 -4 -16 -1 -17 11 0 10 -3 12 -6 5 -6
-17 -23 -16 -23 1 0 9 -9 13 -26 11 -17 -1 -24 2 -20 10 3 8 -2 11 -15 8 -10
-3 -19 -1 -19 4 0 5 -13 10 -30 11 -48 3 -59 5 -57 11 1 3 -2 7 -7 8 -5 1 -13
7 -17 15 -7 10 -9 8 -9 -6 0 -19 -1 -18 -21 3 -17 18 -30 22 -64 19 -34 -2
-41 0 -33 9 14 17 -13 18 -29 2 -9 -9 -11 -7 -7 9 5 17 2 20 -25 18 -19 -1
-32 3 -36 12 -4 12 -8 12 -22 1 -15 -12 -16 -12 -10 4 5 14 2 16 -17 11 -14
-3 -27 0 -35 10 -7 8 -19 12 -27 9 -8 -3 -14 1 -14 8 0 10 -3 10 -11 2 -9 -9
-15 -8 -26 3 -17 16 -33 18 -33 4 0 -5 -4 -10 -10 -10 -5 0 -10 10 -10 23 0
18 -2 19 -10 7 -5 -8 -10 -10 -10 -4 0 14 -48 36 -61 29 -5 -4 -9 -1 -9 6 0 8
-4 8 -15 -1 -12 -10 -15 -9 -15 5 0 14 -3 15 -15 5 -12 -10 -15 -9 -16 6 0 18
-1 18 -9 -1 -5 -12 -9 -14 -9 -6 -1 11 -6 10 -23 -5 -23 -19 -23 -19 0 7 19
22 20 27 8 32 -8 3 -17 -1 -21 -11 -5 -14 -7 -14 -15 -2 -7 10 -10 11 -10 3 0
-7 -4 -13 -9 -13 -5 0 -7 10 -4 23 4 18 3 19 -6 7 -10 -13 -11 -13 -11 0 -1
12 -3 12 -14 -2 -7 -10 -17 -18 -22 -18 -4 0 -3 5 4 12 21 21 13 32 -10 12
-21 -19 -21 -19 -15 4 4 19 3 21 -9 11 -8 -7 -14 -7 -14 -1 0 17 -32 23 -48
10 -13 -11 -15 -10 -9 5 9 23 2 22 -23 -5 -19 -21 -21 -21 -14 -3 4 11 12 23
18 27 7 5 5 8 -6 8 -9 0 -19 -6 -21 -12 -3 -7 -6 -2 -6 12 -1 20 -3 22 -11 10
-9 -13 -11 -13 -19 -1 -7 11 -10 9 -14 -10 -3 -18 -5 -16 -6 11 -1 26 -4 31
-13 22 -17 -17 -26 -15 -30 5 -3 15 -4 15 -20 -1 -10 -10 -18 -13 -18 -7 0 5
5 13 11 17 17 10 -12 24 -38 17 -13 -3 -23 -1 -23 5 0 11 -25 10 -36 -1 -4 -4
-12 -7 -18 -7 -6 0 -5 4 3 9 11 7 9 11 -9 21 -19 10 -22 10 -18 -2 4 -9 -1
-14 -12 -14 -15 0 -16 4 -9 18 11 21 -1 24 -20 6 -11 -11 -13 -10 -8 4 4 13 2
15 -10 11 -12 -5 -14 -3 -8 8 5 8 1 7 -12 -3 -24 -22 -40 -24 -23 -3 11 13 11
18 0 28 -10 10 -11 9 -5 -3 6 -12 5 -13 -5 -3 -10 9 -17 10 -27 1 -11 -9 -12
-7 -7 8 7 18 7 18 -15 0 -21 -19 -21 -19 -15 -1 5 12 4 16 -3 12 -15 -9 -44 3
-37 14 3 5 0 9 -5 9 -6 0 -11 -6 -12 -12 0 -7 -4 -4 -9 7 -8 19 -9 19 -9 -2
-1 -12 -6 -25 -12 -29 -8 -4 -9 1 -4 16 5 15 4 20 -4 16 -12 -8 -56 3 -47 11
2 3 -1 11 -7 18 -8 9 -16 10 -24 3 -9 -7 -13 -7 -13 2 0 9 -4 9 -17 -1 -15
-13 -15 -12 -4 9 11 21 10 22 -13 18 -14 -3 -31 -8 -37 -12 -8 -5 -8 -1 0 14
8 16 7 21 -6 26 -9 4 -21 2 -26 -3 -6 -6 -19 -1 -35 14 -24 22 -27 23 -38 7
-13 -16 -13 -16 -14 1 0 9 -7 17 -15 17 -8 0 -15 5 -15 11 0 5 -4 7 -10 4 -5
-3 -10 -2 -10 3 0 12 -33 11 -43 -2 -5 -7 -7 -3 -5 8 3 19 -15 28 -55 27 -10
0 -15 5 -11 11 5 7 1 9 -9 5 -10 -4 -17 -2 -17 4 0 6 -10 9 -23 7 -13 -2 -29
2 -36 9 -7 8 -19 12 -27 9 -8 -3 -14 -2 -14 3 0 11 -41 28 -87 37 -22 4 -54
21 -76 41 -22 19 -42 32 -45 28 -4 -4 2 -13 12 -21 11 -8 15 -14 9 -14 -18 0
-21 -58 -4 -76 9 -9 11 -14 5 -11 -6 4 -19 -2 -29 -13 -14 -15 -15 -20 -4 -20
11 0 11 -2 -1 -10 -8 -5 -12 -10 -7 -10 4 0 8 1 10 3 4 3 37 -30 37 -37 0 -3
-8 -6 -17 -7 -15 0 -15 -2 2 -9 13 -6 15 -9 5 -9 -8 0 -23 6 -33 13 -18 14
-18 14 0 19 15 4 15 5 1 6 -9 0 -23 -6 -31 -14 -12 -12 -16 -12 -20 -1 -3 7
-1 19 4 27 5 8 9 24 9 36 0 12 8 27 18 32 9 6 11 11 5 11 -9 0 -11 13 -6 45 6
45 -4 58 -24 33 -5 -7 -22 -62 -38 -123 -15 -60 -36 -126 -46 -145 -10 -19
-23 -52 -29 -73 -6 -20 -16 -35 -21 -31 -6 3 -16 0 -24 -6 -13 -10 -15 -8 -15
18 0 41 -14 48 -31 14 -14 -27 -14 -26 -17 28 -3 43 0 57 15 68 23 17 18 39
-17 68 -15 13 -30 36 -33 51 -7 34 13 176 26 184 5 4 13 82 18 175 9 151 22
224 40 224 4 0 9 13 12 29 4 20 16 33 41 45 19 9 38 21 41 26 4 6 10 8 14 5 5
-2 16 4 26 15 21 24 20 23 37 8z m-4820 -630 c37 -38 75 -68 84 -68 37 0 94
-24 100 -42 5 -17 21 -36 81 -100 15 -16 14 -18 -13 -28 -36 -14 -477 -35
-528 -26 -34 6 -38 10 -33 32 3 16 -1 28 -12 35 -11 7 -12 12 -4 15 7 3 9 12
6 20 -4 10 2 14 20 14 28 0 85 50 79 69 -2 6 -8 9 -13 6 -10 -6 -5 10 18 65
45 109 77 134 122 96 14 -12 55 -51 93 -88z m8203 -235 c19 -9 35 -21 35 -25
0 -5 11 -20 24 -33 30 -30 36 -45 24 -68 -10 -20 29 -61 125 -129 31 -22 57
-45 57 -49 0 -5 11 -9 23 -9 19 0 26 -8 35 -39 17 -55 15 -74 -9 -89 -22 -14
-49 -2 -49 23 0 14 -36 30 -87 40 -23 5 -33 12 -33 24 0 10 -21 39 -46 65 -43
42 -48 45 -60 29 -7 -10 -14 -21 -14 -25 0 -4 -6 -5 -14 -2 -10 4 -14 20 -13
49 1 49 -27 87 -73 98 -20 5 -27 16 -36 52 -9 39 -8 50 8 75 21 35 49 39 103
13z m-30 -323 c8 -16 15 -36 15 -45 0 -12 6 -15 19 -10 16 5 22 -3 37 -41 13
-34 26 -50 51 -62 18 -9 33 -19 33 -24 0 -4 10 -8 23 -8 16 0 32 -12 49 -37
13 -21 30 -37 36 -35 7 1 18 3 25 5 6 1 12 -5 12 -13 0 -8 4 -21 9 -28 5 -8 4
-18 -2 -24 -6 -6 -7 -21 -2 -38 5 -16 6 -31 2 -34 -10 -11 -22 -6 -22 8 0 7
-12 22 -26 32 -14 10 -32 24 -38 30 -7 6 -22 15 -34 18 -12 4 -20 12 -17 17 4
5 1 9 -4 9 -6 0 -11 6 -11 13 0 16 -63 73 -90 82 -11 3 -27 16 -37 28 -28 35
-82 69 -99 63 -9 -3 -24 -1 -35 5 -27 14 -21 53 9 57 12 2 22 7 22 11 0 11 39
51 50 51 5 0 16 -13 25 -30z m-6691 -15 c13 -14 33 -51 44 -83 12 -31 28 -66
36 -77 14 -19 15 -17 16 23 0 37 3 42 23 42 31 0 52 -24 87 -99 33 -69 53 -79
47 -25 -3 24 0 37 9 41 9 3 14 20 14 43 0 22 5 42 10 45 16 10 69 -41 145
-137 37 -48 75 -90 84 -92 18 -6 228 -49 336 -71 39 -7 126 -20 195 -29 281
-36 348 -58 395 -130 21 -32 11 -91 -22 -124 -22 -22 -31 -24 -89 -19 -49 4
-72 11 -100 32 -30 23 -50 28 -132 36 -53 4 -98 8 -99 9 -2 0 -3 8 -3 18 0 11
-3 13 -8 5 -9 -13 -61 -16 -177 -7 -93 7 -142 24 -153 55 -7 19 -10 20 -15 6
-8 -22 -37 -22 -37 -1 0 13 -3 14 -15 4 -8 -6 -19 -9 -25 -5 -5 3 -10 2 -10
-3 0 -5 -18 -8 -41 -6 -23 1 -52 -1 -65 -6 -23 -9 -105 9 -149 33 -11 6 -31
13 -45 14 -14 2 -37 8 -52 14 -41 17 -136 19 -148 3 -12 -14 -1 -96 25 -181 8
-26 15 -65 15 -85 0 -31 -4 -38 -22 -42 -13 -3 -36 -7 -52 -11 -18 -4 -37 0
-53 10 -13 9 -39 15 -56 14 -18 -2 -38 0 -44 4 -7 4 -16 0 -21 -10 -8 -13 -4
-21 13 -35 13 -10 28 -18 35 -18 6 0 19 -4 29 -10 16 -8 17 -15 8 -55 -9 -39
-7 -52 11 -93 27 -62 47 -221 29 -239 -16 -16 -72 2 -107 35 -39 36 -55 25
-55 -37 0 -40 5 -59 21 -76 l21 -22 -30 -34 c-16 -19 -25 -28 -21 -20 5 10 3
12 -5 7 -7 -4 -11 -15 -9 -24 2 -9 -7 -27 -19 -41 -13 -13 -23 -35 -23 -48 0
-24 2 -24 73 -22 126 3 136 6 143 48 4 26 15 42 38 56 62 39 146 265 146 391
0 25 -10 92 -21 150 -13 65 -18 109 -12 115 5 5 73 12 151 16 141 6 142 6 142
-15 0 -12 16 -60 35 -106 46 -112 111 -371 119 -476 10 -127 -3 -117 133 -103
65 7 177 17 248 23 199 15 192 8 103 98 -197 203 -204 213 -244 340 -20 65
-45 134 -56 155 -11 22 -17 41 -14 44 3 3 29 -9 58 -27 83 -52 222 -124 348
-180 63 -29 133 -60 155 -70 143 -65 299 -121 509 -185 103 -31 139 -28 181
15 16 17 32 30 37 30 4 0 8 -25 8 -56 l0 -56 86 7 c155 13 179 18 177 40 -1
11 -4 77 -7 148 -3 70 -10 137 -16 148 -6 11 -24 22 -41 26 -26 5 -29 9 -29
44 0 21 4 49 10 64 8 22 12 24 29 13 11 -6 29 -29 41 -50 11 -20 26 -40 32
-44 16 -10 128 -5 150 7 27 14 118 -8 141 -35 18 -20 18 -21 -10 -43 -15 -13
-32 -23 -37 -23 -5 0 -26 -16 -47 -35 -23 -20 -50 -35 -64 -35 -29 0 -30 -5
-6 -45 13 -22 26 -30 52 -32 19 -2 57 -7 84 -12 28 -5 86 -6 130 -4 68 5 83 3
102 -13 l22 -19 -68 -250 c-37 -137 -70 -257 -73 -265 -6 -16 -16 101 -26 305
-7 122 -8 130 -27 129 -11 -1 -117 -13 -235 -27 -118 -14 -285 -33 -370 -42
-85 -8 -195 -20 -245 -25 -49 -5 -191 -19 -315 -30 -124 -11 -250 -25 -280
-30 -30 -5 -88 -9 -129 -10 -40 0 -77 -2 -81 -5 -4 -2 -38 -7 -76 -10 -38 -4
-139 -13 -224 -21 -85 -9 -189 -17 -230 -19 -41 -2 -122 -10 -180 -19 -107
-15 -192 -23 -540 -51 -107 -9 -276 -25 -375 -35 -154 -16 -300 -25 -355 -21
-10 1 -8 6 8 17 13 9 62 19 120 25 206 21 373 43 378 51 3 4 14 8 25 8 11 0
19 7 19 16 0 11 -6 15 -20 11 -16 -4 -21 1 -26 21 -3 15 -8 34 -11 42 -3 8 -7
36 -8 62 -2 26 -9 56 -14 67 -23 42 -12 53 21 22 32 -30 54 -32 44 -4 -5 12
-1 14 19 11 24 -5 34 5 16 16 -5 3 -7 14 -5 24 3 9 -2 34 -11 55 -16 39 -28
49 -23 20 2 -10 -3 -18 -10 -18 -7 0 -16 -6 -21 -13 -6 -10 -10 -10 -21 3 -7
8 -10 18 -7 21 3 4 -5 17 -19 31 -13 13 -24 30 -24 38 0 8 -3 15 -8 15 -10 0
-60 107 -76 166 -8 27 -21 74 -30 105 -15 52 -53 144 -75 179 -6 8 -23 44 -39
80 l-30 65 26 45 c30 53 124 227 154 287 15 29 32 46 57 56 143 58 218 91 229
100 9 7 16 7 24 -1 9 -9 15 -8 26 0 15 13 135 31 234 36 52 2 62 -1 82 -23z
m7233 -92 c40 -43 56 -78 48 -103 -3 -11 7 -30 30 -54 33 -35 36 -36 57 -22
12 9 28 16 35 16 21 0 27 -46 9 -72 -9 -12 -16 -29 -16 -36 0 -16 -39 -51 -56
-52 -7 0 -14 9 -17 20 -4 15 -14 20 -41 20 -29 0 -36 4 -36 19 0 11 -5 23 -10
26 -6 4 -8 10 -5 15 10 16 -24 70 -44 70 -10 0 -24 7 -31 15 -7 8 -27 15 -44
15 -17 0 -26 4 -20 8 5 4 16 23 24 42 7 19 19 42 27 51 8 9 13 20 12 25 -8 47
33 45 78 -3z m-60 -285 c18 -20 33 -48 36 -71 4 -23 16 -48 31 -62 22 -21 27
-21 45 -8 20 13 22 12 37 -27 9 -22 25 -45 35 -51 11 -5 19 -16 19 -24 0 -17
50 -45 79 -45 14 0 26 -11 36 -36 8 -20 27 -48 41 -61 18 -16 23 -29 19 -43
-4 -11 -11 -20 -16 -20 -10 0 -50 21 -59 30 -13 14 -70 50 -77 49 -23 -4 -32
4 -38 31 -8 37 -44 73 -59 61 -6 -5 -20 -5 -31 0 l-20 8 20 1 c19 1 19 2 -2
12 -13 6 -23 14 -23 18 0 13 -82 90 -95 90 -20 0 -85 69 -85 90 0 11 4 20 8
20 5 0 16 16 25 35 21 43 35 44 74 3z m397 -9 c29 -23 33 -50 11 -73 -22 -21
-19 -29 14 -44 26 -11 33 -11 56 4 23 15 28 15 36 3 12 -20 11 -53 -3 -67 -13
-13 5 -42 28 -42 7 0 19 -8 26 -17 7 -10 28 -29 47 -42 29 -20 37 -22 54 -12
22 14 22 14 31 -16 6 -18 1 -25 -26 -37 -18 -9 -40 -21 -49 -27 -13 -10 -26
-3 -74 44 -37 35 -69 57 -90 61 -28 6 -33 10 -30 32 2 17 -5 30 -22 42 -13 9
-36 27 -51 39 -19 14 -36 19 -55 16 -15 -3 -27 -1 -27 5 0 5 -9 12 -20 15 -39
10 -21 49 24 51 16 1 22 9 24 31 6 54 50 70 96 34z m-12420 -74 c28 -29 31
-102 7 -200 -12 -49 -24 -102 -25 -117 -6 -41 -16 -51 -47 -44 -16 3 -29 1
-29 -4 0 -19 -47 -41 -74 -34 -31 7 -32 21 -6 71 11 21 26 74 35 118 26 139
43 185 66 185 12 0 23 8 26 20 6 24 26 26 47 5z m4034 -107 c23 -38 68 -153
76 -195 3 -15 16 -59 30 -96 27 -70 34 -104 16 -77 -8 12 -10 12 -11 -5 -1
-16 -2 -16 -8 5 -5 14 -20 50 -35 80 -34 67 -116 302 -109 313 9 14 22 6 41
-25z m1474 -195 c14 -16 33 -42 41 -58 22 -45 69 -193 65 -206 -2 -6 -71 54
-153 134 -167 163 -165 152 -34 156 48 1 58 -2 81 -26z m-5183 -44 c20 -6 44
-15 53 -20 10 -5 27 -9 38 -9 11 0 20 -7 20 -15 0 -8 11 -17 25 -21 14 -3 23
-10 20 -14 -6 -9 18 -36 37 -43 21 -8 -6 -42 -33 -42 -17 0 -25 6 -27 23 -3
18 -10 22 -37 22 -23 0 -35 5 -39 18 -6 17 -75 71 -109 84 -10 4 -15 12 -12
18 8 13 20 13 64 -1z m8766 -249 c-3 -5 -2 -10 4 -10 5 0 12 4 15 9 12 19 45
-1 51 -31 15 -68 -18 -128 -72 -128 -29 0 -60 30 -42 41 17 10 40 87 28 95
-10 6 -28 -36 -30 -69 -1 -14 -4 -10 -9 13 -11 47 12 89 48 90 7 0 10 -4 7
-10z m264 -146 c5 4 13 1 16 -5 4 -5 13 -8 21 -5 7 3 16 1 19 -4 3 -4 23 -11
45 -15 22 -4 42 -10 45 -14 2 -4 0 -25 -6 -45 -9 -33 -14 -37 -35 -33 -18 3
-24 0 -24 -12 0 -18 -18 -41 -32 -41 -5 0 -4 9 2 19 16 30 12 51 -9 51 -16 0
-18 5 -11 35 6 27 5 35 -6 35 -13 0 -19 -18 -15 -47 1 -7 -5 -13 -14 -13 -18
0 -19 13 -4 42 8 14 8 23 0 31 -11 11 -20 -3 -25 -40 -2 -10 -7 -17 -12 -15
-11 2 -11 6 -1 55 7 31 11 36 22 27 8 -7 19 -9 24 -6z m414 -58 c9 -7 17 -21
17 -30 0 -9 7 -16 15 -16 8 0 15 -4 15 -9 0 -5 -9 -7 -20 -4 -25 7 -26 -13 -1
-26 15 -9 20 -7 24 11 4 12 1 28 -5 35 -7 9 -6 14 7 19 22 9 42 -11 28 -28
-15 -20 -34 -104 -27 -123 5 -13 2 -16 -17 -13 -18 2 -24 9 -24 27 0 13 -6 26
-12 28 -7 3 -13 -2 -13 -11 0 -22 -19 -30 -36 -15 -13 10 -20 10 -36 0 -16
-10 -19 -10 -16 0 2 7 17 20 33 29 33 18 44 40 21 40 -9 0 -13 6 -10 14 3 8
11 13 19 10 18 -7 26 33 8 47 -12 10 -16 10 -24 -2 -7 -12 -9 -12 -9 2 0 31
31 39 63 15z m-11613 -416 c9 -13 45 -27 83 -34 21 -4 37 -13 37 -20 0 -8 6
-16 13 -19 6 -2 33 -43 60 -90 55 -100 60 -142 22 -175 -14 -12 -28 -22 -32
-22 -4 0 -17 -10 -30 -21 -21 -20 -27 -21 -80 -11 -32 6 -65 11 -73 11 -8 0
-24 0 -35 0 -11 1 -39 -2 -62 -5 -32 -5 -48 -2 -67 13 -14 10 -26 23 -26 29 0
6 -9 19 -20 29 -11 10 -18 20 -15 23 3 3 -2 14 -11 24 -14 15 -16 30 -10 90 9
95 48 182 95 212 l35 23 56 -25 c30 -14 57 -28 60 -32z m11910 24 c0 -3 -4
-13 -10 -23 -8 -16 -2 -20 48 -36 31 -10 63 -19 70 -21 10 -3 10 -9 2 -23 -12
-24 -13 -31 -1 -31 5 0 11 10 14 21 5 19 11 21 41 15 29 -6 36 -4 36 9 0 8 5
15 10 15 6 0 10 -11 10 -25 0 -14 -4 -25 -9 -25 -5 0 -11 -9 -14 -20 -3 -11
-1 -20 4 -20 4 0 13 9 19 20 6 11 16 20 22 20 9 0 9 -3 0 -12 -7 -7 -12 -19
-11 -27 0 -12 4 -10 16 7 19 27 38 30 23 3 -12 -24 -13 -31 -1 -31 5 0 13 9
16 20 4 11 11 17 17 14 6 -4 6 -10 -1 -17 -13 -13 -14 -27 -2 -27 5 0 13 9 16
20 3 11 11 20 17 20 6 0 7 -7 3 -17 -4 -10 -8 -24 -8 -30 0 -16 -5 -16 -56 2
-23 8 -45 15 -49 16 -4 1 -17 5 -30 10 -19 8 -21 11 -10 28 13 21 6 37 -11 26
-6 -3 -11 -22 -11 -41 0 -40 -18 -51 -51 -34 -20 11 -20 13 -6 22 20 11 22 28
5 28 -7 0 -30 5 -50 11 -34 9 -38 14 -38 42 l-1 32 -16 -30 c-10 -16 -16 -38
-14 -47 1 -10 -3 -18 -9 -18 -6 0 -8 11 -6 24 3 18 -1 26 -17 30 -15 4 -18 8
-10 14 7 4 15 27 19 50 4 26 12 42 20 42 8 0 14 -3 14 -6z m2924 -23 c32 -33
26 -80 -18 -140 -21 -28 -51 -58 -67 -66 -42 -22 -179 -19 -275 5 -64 17 -84
18 -106 9 -16 -6 -28 -15 -28 -19 0 -8 -21 -13 -169 -41 -63 -12 -104 -39 -95
-63 8 -21 188 -36 354 -31 194 7 198 8 295 50 118 51 337 135 353 135 23 0 72
30 72 45 0 20 49 55 77 55 14 0 37 -9 53 -20 54 -39 47 -109 -14 -134 -20 -8
-51 -27 -71 -43 -19 -15 -36 -26 -37 -23 -2 3 -16 -5 -33 -16 -16 -12 -40 -25
-53 -28 -12 -4 -43 -24 -69 -43 -26 -20 -76 -49 -113 -65 -116 -52 -193 -92
-219 -114 -15 -11 -57 -28 -96 -37 -98 -22 -226 -83 -257 -122 -10 -13 -35
-29 -56 -36 -20 -7 -62 -29 -93 -51 -31 -21 -60 -38 -64 -38 -4 0 -21 -6 -38
-14 -18 -8 -49 -16 -69 -19 -45 -7 -110 -36 -103 -47 5 -9 -46 -21 -87 -20
l-28 0 21 -52 c12 -29 25 -69 30 -88 9 -39 11 -84 2 -61 -9 22 -42 51 -55 48
-7 -1 -18 -6 -24 -12 -6 -5 -25 -22 -43 -37 -17 -16 -36 -28 -41 -28 -6 0 -21
-7 -34 -15 -26 -18 -261 -95 -287 -95 -10 0 -47 13 -82 30 -78 36 -93 37 -124
8 -28 -26 -29 -40 -4 -62 62 -56 8 -166 -83 -166 -69 0 -102 103 -57 175 50
80 289 302 410 380 63 41 69 48 80 92 24 99 133 500 153 561 19 61 23 66 112
132 51 39 106 72 122 76 16 3 83 -2 149 -10 152 -20 241 -20 296 0 27 10 73
16 117 15 54 0 94 6 149 25 144 48 209 52 247 15z m-12868 -606 c-6 -17 15
-20 30 -5 17 17 63 -6 70 -35 6 -26 47 -51 65 -39 5 3 9 1 9 -4 0 -10 45 -33
75 -39 27 -5 44 -23 22 -23 -9 0 -17 -4 -17 -10 0 -5 -7 -10 -16 -10 -8 0 -13
4 -10 8 3 5 -62 7 -144 6 -135 -2 -154 -5 -190 -25 -25 -14 -44 -19 -48 -14
-4 6 -34 11 -67 13 -33 1 -79 7 -101 13 -35 9 -47 8 -82 -10 -24 -12 -44 -31
-50 -48 -6 -15 -24 -43 -41 -61 -17 -18 -31 -40 -31 -47 0 -8 28 -38 63 -66
331 -276 480 -439 553 -606 14 -32 34 -67 44 -78 21 -23 80 -134 80 -151 0 -6
18 -38 40 -70 22 -33 45 -68 52 -78 7 -10 23 -31 34 -45 12 -14 47 -77 78
-139 31 -63 66 -127 78 -144 12 -17 40 -65 63 -107 99 -179 127 -227 145 -246
63 -64 159 -204 230 -334 60 -110 61 -114 62 -191 1 -85 -4 -100 -31 -100 -19
0 -115 111 -140 162 -9 18 -47 71 -84 118 -66 82 -79 103 -135 215 -24 49 -41
69 -177 210 -37 39 -77 84 -88 100 -12 17 -38 48 -58 70 -21 22 -63 72 -94
110 -32 39 -69 81 -82 95 -14 13 -49 58 -78 100 -30 41 -68 91 -85 110 -18 19
-50 58 -72 85 -22 28 -75 88 -118 135 -42 47 -105 119 -140 160 -35 41 -102
116 -150 165 -47 50 -108 117 -135 150 -27 33 -87 98 -134 145 -88 87 -241
261 -278 315 -11 17 -22 39 -25 51 -8 32 10 142 28 169 24 36 94 34 177 -4 61
-28 90 -50 195 -146 71 -66 114 -93 120 -77 2 7 17 25 34 40 41 37 90 86 106
106 8 10 21 14 31 11 10 -3 39 3 64 14 25 11 48 17 52 13 3 -4 10 0 14 7 9 13
78 33 116 32 87 -2 110 1 121 11 3 4 12 4 19 2 7 -3 15 2 18 10 4 9 9 16 13
16 3 0 4 -7 0 -15z m12648 -195 c29 -11 54 -56 48 -85 -11 -51 -93 -92 -163
-81 -41 7 -96 38 -112 63 -5 7 -13 11 -18 7 -6 -3 0 9 12 28 26 41 62 58 139
68 30 4 58 8 62 9 4 0 18 -3 32 -9z m-1002 -470 c76 -23 164 -82 195 -130 12
-19 35 -53 51 -75 40 -54 122 -214 122 -237 0 -10 -4 -18 -10 -18 -19 0 -4
-200 20 -265 18 -48 20 -70 14 -115 -4 -30 -6 -61 -5 -67 1 -7 -5 -13 -14 -13
-8 0 -15 -5 -15 -10 0 -6 -6 -5 -14 2 -9 8 -11 17 -5 23 12 12 12 55 -1 55 -5
0 -13 12 -16 27 -7 27 -54 103 -54 87 0 -5 -4 -4 -8 3 -5 8 -21 9 -52 3 -61
-11 -158 -15 -167 -7 -3 4 -14 7 -22 7 -9 0 -33 9 -54 20 -20 11 -54 20 -76
20 -34 0 -44 -6 -86 -55 -46 -53 -50 -55 -94 -53 -26 1 -65 11 -89 24 -24 13
-58 25 -76 28 -52 8 -67 17 -79 45 -10 26 -11 26 -15 3 -2 -12 -8 -19 -14 -16
-6 4 -8 -1 -3 -15 8 -26 -10 -45 -52 -54 -21 -4 -35 -2 -43 8 -7 8 -19 15 -27
15 -12 0 -13 7 -8 27 4 16 11 33 17 40 17 21 271 209 307 227 41 22 29 40 -18
26 -29 -8 -36 -6 -56 16 l-24 26 -3 -44 -3 -43 -23 60 c-13 33 -30 74 -38 90
-13 27 -14 27 -10 5 3 -14 9 -43 15 -64 6 -26 6 -46 0 -58 -6 -12 -6 -25 1
-38 6 -11 7 -20 2 -20 -5 0 -17 9 -27 20 -27 30 -34 24 -22 -15 6 -19 8 -38 4
-41 -8 -8 -97 26 -97 37 0 5 -4 9 -10 9 -5 0 -10 -17 -10 -37 0 -48 -3 -52
-70 -96 -60 -41 -82 -44 -127 -22 -45 23 -65 50 -70 98 -11 94 57 164 207 214
83 27 202 97 228 134 7 10 45 37 85 60 40 23 106 65 147 93 115 77 182 90 292
56z m-998 -724 c33 -14 43 -34 52 -104 2 -12 10 -29 18 -38 9 -8 16 -22 16
-29 0 -15 40 -58 47 -51 2 2 -5 19 -16 37 -24 39 -28 120 -8 137 7 7 29 9 49
6 19 -4 45 -1 56 5 32 17 52 4 52 -34 0 -36 -17 -60 -50 -70 -11 -3 -20 -13
-20 -22 0 -10 5 -13 18 -8 37 16 49 16 60 2 10 -12 8 -21 -14 -46 -14 -17 -35
-31 -47 -31 -15 0 -18 -3 -10 -11 6 -6 51 -15 99 -21 86 -9 177 -39 192 -62 4
-6 26 -24 50 -39 23 -15 42 -32 42 -37 0 -6 5 -10 11 -10 19 0 109 -99 109
-120 0 -23 -10 -30 -47 -32 -15 -1 -33 -5 -39 -10 -6 -4 -30 -9 -53 -10 -22
-1 -41 -5 -41 -10 0 -5 -19 -6 -42 -3 -24 3 -95 10 -158 16 -63 5 -126 15
-140 21 -14 6 -42 12 -63 14 -42 4 -124 45 -163 81 -14 13 -28 23 -32 23 -11
0 -46 62 -47 82 -1 10 -10 27 -20 38 -10 11 -14 20 -10 20 4 0 0 10 -11 21
-14 16 -15 23 -6 26 17 7 15 21 -9 51 -13 17 -18 34 -15 49 4 15 0 25 -11 32
-17 9 -17 11 3 33 11 13 26 35 34 51 7 15 19 27 27 27 7 0 13 4 13 8 0 8 51
28 78 31 7 0 28 -5 46 -13z m1134 -155 c54 -21 118 -44 142 -51 25 -6 53 -19
63 -27 35 -32 11 -113 -34 -113 -10 0 -20 -4 -23 -9 -6 -10 -20 -9 -48 3 -9 4
-25 3 -34 -2 -10 -5 -25 -6 -33 -2 -9 4 -28 13 -43 19 -16 6 -28 17 -28 26 0
8 -9 15 -20 15 -11 0 -23 7 -26 15 -5 13 -10 12 -34 -5 -17 -12 -46 -20 -79
-21 -29 -1 -54 -5 -56 -9 -15 -24 -232 11 -251 41 -3 6 -14 7 -24 4 -10 -3
-21 -1 -25 5 -3 5 -1 10 4 10 6 0 11 10 11 23 0 14 12 30 33 44 50 33 74 42
182 63 136 26 201 21 323 -29z m-1808 -547 c0 -11 -13 -33 -30 -49 -16 -16
-30 -34 -30 -41 0 -6 -7 -14 -15 -18 -8 -3 -15 -11 -15 -18 -1 -25 -46 -69
-63 -62 -9 3 -17 11 -17 18 0 16 45 109 68 143 11 15 32 50 47 77 l28 49 13
-39 c8 -21 14 -48 14 -60z"/>
<path d="M8465 7790 c-3 -5 1 -10 9 -10 8 0 18 -5 22 -11 5 -9 -6 -10 -38 -5
-46 7 -78 1 -78 -15 0 -5 9 -9 20 -9 11 0 20 -4 20 -10 0 -5 9 -10 19 -10 11
0 23 -5 27 -11 4 -8 0 -9 -15 -4 -11 3 -29 2 -38 -4 -12 -7 -13 -11 -5 -11 8
0 21 -9 30 -20 35 -43 218 -69 287 -41 16 7 38 10 48 7 12 -3 21 3 27 17 5 12
9 16 9 9 1 -7 6 -10 11 -7 19 12 10 35 -20 50 -31 16 -39 9 -17 -15 10 -12 9
-12 -5 -1 -10 7 -18 20 -18 27 0 8 -6 14 -14 14 -7 0 -19 7 -26 15 -7 9 -19
14 -26 11 -7 -3 -15 2 -18 10 -3 8 -19 14 -36 14 -18 0 -29 -4 -25 -10 3 -5
-3 -10 -14 -10 -12 0 -21 4 -21 8 0 10 -45 32 -63 32 -7 -1 4 -9 23 -20 28
-15 31 -19 14 -20 -12 0 -33 9 -47 20 -29 23 -33 24 -42 10z"/>
<path d="M9656 7710 c-21 -4 -41 -11 -45 -16 -6 -9 -38 -15 -83 -15 -28 0 -78
-42 -78 -65 0 -26 3 -29 23 -26 11 2 17 -1 13 -6 -4 -6 17 -16 49 -23 30 -7
52 -15 50 -20 -9 -13 88 1 177 27 48 14 96 26 107 27 12 1 21 5 21 9 0 4 12 3
26 -3 15 -5 29 -7 32 -4 3 3 0 5 -6 5 -7 0 -12 7 -12 16 0 11 5 14 16 10 15
-6 15 -4 3 11 -27 34 -39 44 -58 48 -10 2 -32 10 -48 18 -31 16 -126 19 -187
7z"/>
<path d="M9480 7483 c-24 -8 -94 -57 -108 -75 -7 -10 -19 -18 -26 -18 -26 0
-37 -29 -39 -98 -2 -73 5 -94 25 -74 13 13 74 16 82 4 2 -4 -1 -27 -7 -50 -8
-32 -8 -45 1 -54 18 -18 330 -11 412 10 69 17 212 21 292 7 56 -9 70 7 43 48
-18 29 -33 36 -90 48 -22 4 -74 17 -115 28 -80 22 -141 26 -205 14 l-40 -8 45
-14 c57 -17 100 -39 100 -51 0 -5 -11 -5 -27 0 -51 17 -204 30 -223 20 -24
-13 -33 -13 -25 0 4 6 -7 10 -27 10 l-33 1 24 19 c34 29 118 50 183 47 69 -4
95 7 41 18 -65 12 -139 7 -199 -15 -57 -20 -163 -29 -135 -11 9 6 10 10 2 16
-16 9 -4 42 30 86 16 20 29 46 29 57 0 11 5 22 12 24 7 3 8 7 3 10 -6 3 -17 3
-25 1z"/>
<path d="M8430 7381 c-11 -8 -5 -11 29 -11 48 0 151 -24 184 -43 12 -7 31 -21
44 -32 l22 -20 -204 -1 c-186 0 -204 1 -208 17 -4 14 5 20 45 28 27 6 60 11
73 11 13 0 27 5 30 10 11 18 -137 12 -197 -9 -31 -10 -86 -24 -123 -30 -64
-10 -145 -50 -145 -72 0 -12 3 -11 83 5 85 18 220 7 347 -29 93 -26 167 -39
275 -51 113 -12 122 -7 108 65 -8 40 -7 51 3 51 22 0 27 21 8 35 -11 8 -31 15
-46 15 -21 0 -26 4 -22 18 4 12 3 13 -3 4 -8 -11 -22 -8 -69 13 -65 29 -207
45 -234 26z"/>
<path d="M8340 7135 c117 -78 148 -89 240 -90 66 0 93 4 120 20 27 14 31 20
18 23 -10 2 -18 7 -18 11 0 5 -19 5 -42 0 -45 -8 -138 6 -138 21 0 5 -12 7
-26 4 -14 -3 -23 -1 -20 5 8 12 -35 19 -60 11 -10 -4 -28 -1 -39 5 -11 7 -36
16 -55 20 -34 6 -33 5 20 -30z"/>
<path d="M9723 7073 c-13 -2 -23 -11 -23 -18 0 -11 -6 -12 -25 -5 -16 6 -25 6
-25 0 0 -6 -5 -10 -11 -10 -5 0 -7 6 -3 13 5 8 3 8 -9 -2 -18 -14 -123 -12
-162 4 -19 8 -18 6 2 -16 35 -39 114 -62 187 -57 80 7 196 64 180 89 -5 9 -70
10 -111 2z"/>
<path d="M8647 6760 c-33 -17 -64 -30 -69 -30 -6 0 -27 -15 -47 -32 -73 -64
-91 -78 -105 -78 -7 0 -21 -9 -31 -20 -10 -11 -15 -20 -12 -20 4 0 -9 -16 -29
-35 -19 -19 -40 -35 -47 -35 -8 0 -6 -4 3 -10 10 -6 11 -10 3 -10 -7 0 -13 -8
-13 -19 0 -10 -7 -24 -15 -31 -8 -7 -15 -18 -15 -25 0 -6 -9 -20 -20 -30 -11
-10 -19 -23 -17 -29 2 -6 -5 -20 -17 -32 -39 -38 -49 -63 -31 -81 9 -8 14 -22
11 -29 -3 -8 1 -14 9 -14 8 0 20 -10 26 -22 7 -13 25 -39 41 -58 21 -26 28
-45 28 -77 0 -23 4 -53 10 -67 8 -22 14 -25 40 -19 23 4 50 -3 110 -31 44 -21
106 -41 142 -46 57 -9 64 -8 79 11 15 20 16 20 47 2 31 -18 32 -18 47 5 19 26
60 29 87 5 16 -14 18 -14 18 -1 0 19 21 28 66 28 32 0 34 -2 35 -32 l1 -33 9
33 c11 37 3 36 158 21 74 -7 122 -17 133 -26 9 -8 18 -10 22 -5 10 16 44 2 61
-25 16 -24 17 -24 37 -6 19 17 20 17 38 -5 22 -26 32 -27 116 -6 51 13 71 14
90 5 23 -10 25 -9 22 11 -2 19 1 23 20 20 13 -1 33 5 45 13 28 20 57 19 57 -1
0 -11 5 -14 16 -10 9 3 18 6 20 6 2 0 4 10 4 23 0 12 7 35 15 51 8 15 15 39
15 52 0 13 4 24 10 24 5 0 15 20 21 45 12 47 38 71 66 61 9 -4 21 1 29 12 14
20 64 20 64 0 0 -6 7 -5 16 3 11 9 17 10 23 1 3 -6 24 -12 45 -14 20 -1 40 -6
42 -10 3 -4 24 -8 47 -8 39 -1 41 -2 23 -15 -19 -14 -19 -15 8 -15 21 0 27 4
22 16 -3 8 1 25 9 38 9 13 13 31 9 40 -3 9 -2 22 3 29 14 18 14 58 0 90 -14
31 -50 37 -66 10 -8 -14 -12 -15 -25 -4 -9 7 -16 10 -16 5 0 -4 -11 3 -24 15
-14 13 -29 20 -34 17 -5 -3 -15 1 -22 9 -7 9 -29 15 -51 15 -22 0 -39 5 -39
10 0 6 -5 10 -11 10 -5 0 -8 -4 -5 -9 9 -14 -4 -41 -19 -41 -7 0 -18 7 -25 15
-15 18 -98 75 -109 75 -4 0 -14 11 -21 25 -7 13 -23 28 -34 31 -12 4 -29 14
-38 23 -127 124 -237 218 -250 214 -4 -2 -12 6 -18 17 -6 11 -16 20 -22 20 -6
0 -2 -10 9 -22 37 -41 63 -92 63 -127 0 -32 -1 -33 -32 -28 -98 14 -155 32
-180 55 -25 23 -29 24 -45 10 -26 -22 -88 -33 -168 -28 -167 9 -260 5 -322
-14 -64 -20 -101 -17 -127 10 -21 20 -13 57 25 112 43 64 41 65 -44 22z m12
-214 c9 -7 48 -24 86 -37 39 -13 73 -27 76 -32 3 -4 21 -10 40 -12 19 -2 79
-11 134 -20 196 -30 404 -25 447 12 9 8 25 12 35 9 21 -6 43 8 67 47 10 15 23
27 28 27 5 0 28 -20 51 -45 24 -25 51 -45 63 -45 23 0 64 -73 65 -118 0 -15 4
-36 8 -47 10 -25 -3 -63 -30 -86 -11 -10 -20 -20 -20 -23 3 -23 -2 -25 -26
-12 -16 8 -50 33 -78 56 -65 55 -120 82 -173 86 -24 2 -48 6 -53 10 -19 12
-424 15 -509 4 -160 -21 -232 -40 -290 -75 -82 -50 -110 -59 -137 -44 -15 8
-23 22 -23 37 0 14 -6 33 -14 41 -12 14 -11 23 3 66 41 123 115 201 188 197
12 -1 25 3 28 8 8 13 15 13 34 -4z m396 -366 c13 0 27 -5 30 -10 4 -6 10 -8
15 -5 5 3 12 1 15 -5 4 -7 11 -8 18 -1 26 21 194 -6 210 -35 4 -8 15 -14 22
-14 8 0 15 -7 15 -17 0 -15 1 -15 18 0 10 10 26 17 36 17 17 0 20 -5 30 -52 4
-19 11 -26 21 -22 11 5 15 -1 15 -19 0 -15 5 -38 12 -52 10 -22 9 -28 -3 -36
-24 -15 -92 0 -116 27 -14 15 -24 20 -29 13 -4 -7 -24 -9 -48 -7 -29 4 -46 0
-55 -10 -11 -11 -28 -13 -70 -8 -31 3 -84 6 -117 6 -52 -1 -66 3 -92 25 -18
15 -33 21 -37 15 -10 -16 -95 -12 -101 5 -9 22 -27 18 -54 -10 -25 -27 -49
-32 -68 -13 -9 9 -16 7 -32 -7 -16 -15 -25 -16 -44 -7 -13 6 -33 8 -45 5 -14
-3 -23 0 -27 11 -8 21 13 46 37 46 11 0 19 7 19 18 0 9 4 24 10 32 8 12 11 12
28 -3 19 -18 33 -22 30 -9 -1 4 1 21 5 39 9 44 44 59 147 66 106 7 131 11 156
25 11 6 20 7 22 1 2 -5 14 -9 27 -9z"/>
<path d="M8784 5732 c4 -7 21 -12 37 -12 25 0 29 -3 24 -19 -4 -14 2 -21 24
-31 32 -13 90 -22 133 -21 15 0 30 -4 33 -9 4 -6 62 -10 131 -10 104 0 124 2
124 15 0 8 -3 15 -7 15 -5 0 -39 5 -78 11 -38 5 -87 10 -108 11 -21 0 -45 8
-54 17 -11 11 -43 18 -97 23 -45 3 -101 10 -125 14 -32 5 -42 4 -37 -4z"/>
<path d="M5682 6996 c-100 -20 -103 -58 -9 -100 82 -37 115 -72 142 -149 38
-109 17 -133 -106 -122 -41 4 -95 6 -120 6 -26 -1 -58 3 -72 8 -19 8 -34 6
-54 -4 -27 -14 -59 -4 -47 16 9 15 -38 9 -91 -11 -27 -10 -87 -30 -132 -45
-46 -14 -83 -30 -83 -34 0 -26 122 -66 245 -80 99 -11 241 -54 270 -81 13 -13
33 -19 56 -18 36 1 59 -7 59 -20 0 -10 -49 -14 -62 -5 -20 12 -83 13 -105 1
l-23 -11 24 -22 c51 -47 223 -60 253 -19 12 16 11 19 -9 27 -13 5 -30 10 -38
11 -8 2 -15 9 -15 17 0 10 13 14 47 14 25 0 49 3 54 8 4 4 16 7 26 7 11 0 25
6 32 13 25 25 66 92 66 108 0 9 11 29 25 45 14 16 25 36 25 44 1 29 28 53 54
48 23 -5 26 -1 32 30 6 30 3 38 -17 54 -13 10 -29 22 -35 27 -8 6 -10 31 -7
69 5 54 3 61 -18 76 -13 9 -30 16 -39 16 -8 0 -45 18 -82 39 -79 46 -149 57
-246 37z"/>
<path d="M14189 1783 c-9 -10 -26 -25 -38 -33 -48 -31 -145 -113 -126 -105 44
17 123 36 180 42 73 7 155 -12 261 -62 l76 -34 24 26 c30 33 30 49 0 76 -22
19 -37 22 -137 23 l-114 1 -6 30 c-3 16 -9 35 -13 41 -11 19 -89 15 -107 -5z"/>
<path d="M7430 10480 c-8 -6 -25 -10 -37 -10 -13 0 -23 -5 -23 -10 0 -6 -11
-15 -25 -20 -14 -5 -25 -14 -25 -20 0 -5 -6 -10 -14 -10 -8 0 -23 -13 -33 -30
-9 -16 -21 -30 -25 -30 -4 0 -8 -6 -8 -14 0 -8 -9 -18 -20 -21 -11 -3 -20 -12
-20 -20 0 -7 -3 -21 -7 -31 -4 -11 -3 -15 4 -11 6 4 13 -2 16 -13 3 -11 12
-20 21 -20 9 0 26 -9 38 -20 12 -11 34 -26 50 -32 15 -7 28 -15 28 -18 0 -3
17 -6 37 -8 36 -2 87 9 129 30 15 7 28 7 43 -1 16 -9 20 -9 15 2 -2 7 6 19 21
27 14 7 25 20 25 27 0 8 -5 11 -12 7 -8 -5 -9 -2 -5 9 3 10 2 17 -3 17 -17 0
-46 70 -33 78 14 9 25 78 18 104 -4 10 -12 18 -19 18 -8 0 -19 6 -25 14 -9 11
-20 12 -43 5 -19 -5 -36 -5 -43 1 -6 5 -16 5 -25 0z"/>
<path d="M1067 8194 c-1 -1 -51 -5 -111 -9 -61 -3 -117 -10 -127 -15 -9 -5
-19 -7 -21 -4 -3 2 -11 -2 -18 -11 -7 -8 -17 -15 -23 -15 -18 0 -36 -34 -37
-67 0 -24 4 -33 17 -33 9 0 13 -3 10 -6 -3 -4 5 -15 18 -26 14 -11 25 -25 25
-33 0 -7 11 -22 25 -32 22 -17 24 -22 18 -75 -4 -41 -10 -58 -20 -58 -8 0 -12
-4 -8 -9 3 -6 -4 -15 -15 -21 -11 -6 -18 -15 -15 -21 4 -5 -2 -9 -12 -9 -11 0
-35 -11 -53 -25 -19 -14 -41 -25 -50 -23 -24 3 -124 -13 -135 -23 -20 -16 -65
-29 -65 -19 0 6 8 10 18 11 9 0 1 6 -18 13 -19 8 -38 11 -42 9 -8 -4 -11 11
-9 40 2 10 -5 17 -15 17 -10 0 -14 3 -11 6 3 4 -5 16 -19 27 -14 10 -23 26
-20 33 3 8 1 14 -4 14 -5 0 -7 6 -4 14 3 8 -2 20 -11 27 -8 8 -22 20 -30 26
-7 7 -21 10 -29 7 -9 -3 -24 0 -33 7 -10 9 -14 9 -10 2 5 -7 -1 -16 -13 -23
-16 -9 -20 -8 -20 7 0 14 -3 13 -21 -6 -12 -12 -28 -20 -36 -17 -8 3 -25 -1
-38 -10 -13 -9 -28 -13 -34 -10 -5 4 -12 -3 -16 -14 -3 -11 -17 -23 -31 -26
-23 -6 -24 -9 -24 -105 l0 -99 63 0 c34 0 76 -2 94 -3 18 -2 38 0 44 4 7 4 24
3 38 -3 18 -6 27 -6 29 2 3 7 13 5 29 -6 18 -11 28 -13 32 -5 11 17 71 2 71
-18 0 -14 2 -14 10 -1 9 15 11 13 14 -12 1 -8 12 -12 27 -10 17 2 29 -3 33
-13 3 -9 10 -14 14 -11 5 3 8 -13 6 -34 -1 -22 2 -40 8 -40 6 0 7 -7 4 -15 -3
-10 1 -18 12 -22 9 -4 31 -22 48 -40 22 -23 41 -34 60 -34 16 0 52 -2 79 -4
55 -4 128 10 162 31 12 8 28 14 36 14 7 0 20 11 27 25 7 14 15 23 18 21 2 -3
22 9 45 25 22 16 48 29 58 29 10 0 24 6 31 13 7 7 36 23 63 36 28 13 58 28 67
33 10 4 24 8 32 8 8 0 27 6 43 14 15 8 41 20 58 28 29 13 145 119 145 132 0 4
9 19 20 34 11 15 22 38 24 52 3 14 5 25 7 25 1 0 3 11 4 25 3 29 -31 113 -43
106 -5 -3 -15 6 -22 19 -7 14 -17 25 -21 25 -5 0 -22 14 -39 30 -17 17 -35 30
-40 30 -5 0 -24 9 -42 19 -59 35 -265 90 -281 75z"/>
<path d="M17322 6954 c-69 -15 -145 -59 -150 -87 -2 -10 0 -26 4 -35 11 -28
14 -132 3 -132 -6 0 -7 -5 -4 -10 4 -6 12 -7 18 -3 8 4 7 1 -1 -9 -21 -26 -18
-120 7 -181 6 -16 11 -39 11 -53 0 -13 4 -24 9 -24 4 0 9 -21 9 -47 1 -61 12
-125 23 -138 4 -6 13 -33 19 -59 6 -27 19 -61 30 -76 11 -15 16 -30 12 -34 -4
-4 -1 -6 7 -4 10 2 16 -7 17 -27 8 -87 16 -113 44 -140 17 -16 30 -25 30 -21
0 26 161 -125 208 -196 18 -25 44 -56 59 -67 16 -11 33 -24 38 -29 28 -22 40
-26 190 -59 17 -3 38 -6 48 -7 9 0 17 -3 17 -7 0 -4 7 -9 15 -13 13 -5 15 79
15 719 l0 725 -22 4 c-13 3 -142 7 -288 10 -146 3 -274 8 -285 10 -11 2 -48
-2 -83 -10z"/>
<path d="M1720 6308 c-139 -13 -320 -19 -320 -11 0 12 -168 14 -175 3 -3 -6
-17 -7 -29 -4 -16 4 -25 0 -29 -10 -4 -9 -13 -16 -21 -16 -19 0 -32 -86 -15
-106 10 -12 9 -13 -7 -8 -15 4 -16 4 -5 -4 8 -6 23 -9 33 -7 13 3 18 -1 16
-12 -2 -10 7 -22 20 -29 17 -8 20 -13 10 -17 -11 -5 -11 -6 1 -6 7 -1 26 -12
42 -26 16 -13 35 -22 42 -19 7 2 26 -9 42 -26 16 -16 36 -30 45 -30 10 0 38
-11 63 -24 25 -14 47 -22 50 -20 3 3 23 -6 46 -20 22 -14 44 -26 49 -26 5 0
17 -9 26 -19 10 -10 34 -22 54 -26 20 -4 42 -14 49 -23 11 -16 12 -16 13 1 0
16 2 16 25 1 23 -15 25 -15 31 0 3 9 10 13 15 10 5 -3 9 0 9 5 0 6 3 10 8 9
14 -3 42 14 36 23 -3 5 6 9 20 9 41 0 109 36 141 74 16 20 36 36 42 36 7 0 13
4 13 9 0 5 20 15 45 22 25 7 45 18 45 24 0 5 5 3 10 -5 6 -10 10 -11 10 -2 0
6 7 12 15 12 8 0 20 9 27 19 7 11 18 17 27 13 9 -3 13 -2 9 3 -4 4 2 21 13 36
12 17 16 29 9 29 -7 0 -10 7 -7 14 4 10 1 13 -7 10 -8 -3 -17 -1 -21 5 -3 6 1
14 10 18 13 4 3 13 -37 33 -73 35 -199 63 -336 75 -29 2 -56 6 -60 7 -4 2 -45
0 -92 -4z"/>
<path d="M0 1542 c0 -1204 -4 -1121 56 -1249 54 -117 106 -237 118 -275 5 -17
62 -18 1006 -18 550 0 1000 4 1000 8 0 5 -7 31 -15 58 -9 27 -20 72 -25 99 -6
28 -30 113 -54 190 -45 142 -62 200 -92 314 -14 49 -31 81 -82 145 -36 44 -72
92 -80 106 -9 14 -57 88 -107 165 -50 77 -127 195 -171 262 -240 372 -233 362
-341 448 -55 44 -141 114 -191 155 -167 139 -287 227 -548 402 -282 188 -330
219 -416 268 l-58 32 0 -1110z"/>
<path d="M10453 1335 c-40 -30 -81 -55 -93 -55 -11 0 -20 -4 -20 -10 0 -5 5
-10 12 -10 6 0 40 -12 76 -26 35 -14 70 -23 76 -21 20 8 44 67 52 125 6 47 5
52 -12 52 -11 0 -51 -25 -91 -55z"/>
<path d="M11270 1319 c0 -6 -7 -8 -16 -5 -21 8 -54 -11 -54 -32 0 -15 2 -15
10 -2 8 13 11 13 24 0 24 -23 -8 -81 -52 -96 -35 -11 -33 -24 3 -24 28 0 61
36 79 85 8 22 15 33 15 24 1 -24 -35 -103 -56 -121 -10 -9 -25 -18 -33 -19
-24 -5 -81 30 -141 88 l-57 54 -74 2 c-70 2 -73 3 -70 25 3 23 -7 29 -24 13
-5 -6 -27 -6 -54 -1 -54 11 -144 13 -153 3 -4 -3 0 -17 8 -30 11 -16 13 -35 9
-63 l-7 -40 57 0 c40 0 71 -7 104 -24 42 -22 132 -34 177 -26 24 5 51 -3 62
-17 8 -10 22 -14 38 -11 14 3 28 1 31 -3 3 -5 14 -9 25 -9 10 0 38 -9 62 -19
23 -11 60 -25 82 -31 40 -12 93 -34 128 -51 27 -15 33 -5 35 57 1 54 -1 59
-38 95 -35 34 -39 42 -28 58 9 15 9 26 1 43 -6 13 -14 31 -17 42 -3 10 -12 16
-19 13 -8 -3 -19 4 -25 14 -13 21 -32 25 -32 8z m-580 -61 c0 -12 3 -18 7 -15
3 4 12 2 20 -4 10 -9 13 -7 13 10 0 12 6 21 14 21 21 0 48 -30 42 -46 -8 -21
14 -28 28 -9 12 16 13 16 19 1 4 -9 13 -16 22 -16 8 0 15 -6 15 -12 1 -7 10
-2 20 11 13 15 27 22 40 18 13 -3 20 0 20 9 0 8 10 14 24 14 27 0 56 -33 56
-62 0 -16 -10 -18 -104 -16 -79 2 -108 7 -122 19 -22 19 -70 34 -119 37 -18 2
-20 7 -17 37 4 37 22 39 22 3z"/>
<path d="M6040 443 c0 -5 20 -42 43 -83 209 -360 209 -360 233 -360 31 0 30
17 -2 42 -17 14 -24 28 -22 45 2 18 -6 32 -30 51 -18 15 -34 38 -37 51 -2 14
-18 37 -35 53 -23 20 -29 33 -25 50 5 18 -1 29 -24 46 -18 13 -31 33 -33 49
-2 18 -14 33 -35 46 -18 10 -33 15 -33 10z"/>
<path d="M11053 198 c-15 -18 -21 -140 -7 -145 6 -2 19 17 29 42 12 34 26 51
50 62 31 15 35 15 63 -5 35 -26 62 -78 62 -121 0 -30 1 -31 46 -31 l46 0 -7
37 c-11 60 -43 111 -87 140 -33 22 -55 28 -113 31 -51 3 -74 0 -82 -10z"/>
</g>
</svg>
